M48
; DRILL file {KiCad (5.1.0-386-g9f189ca71)} date Čt 2. května 2019, 08:15:19 CEST
; FORMAT={3:3/ absolute / metric / keep zeros}
; #@! TF.CreationDate,2019-05-02T08:15:19+02:00
; #@! TF.GenerationSoftware,Kicad,Pcbnew,(5.1.0-386-g9f189ca71)
; #@! TF.FileFunction,Plated,1,2,PTH
FMAT,2
METRIC
T1C0.300
T2C0.400
T3C0.800
T4C1.000
T5C1.300
T6C3.200
%
G90
G05
T1
X203235Y-108365
X205000Y-110100
X205300Y-100000
X207400Y-101600
X210510Y-100560
X210510Y-101860
X210510Y-103160
X210510Y-104460
X210510Y-105760
X211810Y-100560
X211810Y-101860
X211810Y-103160
X211810Y-104460
X211810Y-105760
X213110Y-100560
X213110Y-101860
X213110Y-103160
X213110Y-104460
X213110Y-105760
T2
X150800Y-076400
X150800Y-077400
X150800Y-078400
X150800Y-079400
X154800Y-076400
X154800Y-077400
X154800Y-078400
X154800Y-079400
X161700Y-076400
X161700Y-077400
X161700Y-078400
X161700Y-079400
X165500Y-109200
X166000Y-076400
X166000Y-077400
X166000Y-078400
X166000Y-079400
X172900Y-076400
X172900Y-077400
X172900Y-078400
X172900Y-079400
X177200Y-076400
X177200Y-077400
X177200Y-078400
X177200Y-079400
X180700Y-109200
X181300Y-104000
X185600Y-109200
X187100Y-088500
X187800Y-064600
X187800Y-065600
X187800Y-066600
X187800Y-067600
X188800Y-064600
X188800Y-065600
X188800Y-066600
X188800Y-067600
X189800Y-064600
X189800Y-065600
X189800Y-066600
X189800Y-067600
X189900Y-083700
X189900Y-093300
X191000Y-096900
X191000Y-105200
X193700Y-097000
X194900Y-097000
X195300Y-076600
X195300Y-077600
X195300Y-078600
X195300Y-079600
X196300Y-076600
X196300Y-077600
X196300Y-078600
X196300Y-079600
X197300Y-076600
X197300Y-077600
X197300Y-078600
X197300Y-079600
X198300Y-076600
X198300Y-077600
X198300Y-078600
X198300Y-079600
X202700Y-097100
X203400Y-098100
X203500Y-100100
X203500Y-103800
X207424Y-099656
X208900Y-098300
X211700Y-080400
X211700Y-081400
X211700Y-082400
X211700Y-083400
X211700Y-084400
X211700Y-085400
X211700Y-086400
X211700Y-097300
X212700Y-086400
X213700Y-086400
X214700Y-086400
X215600Y-106900
X215700Y-086400
X216000Y-110046
X216700Y-086400
X217700Y-086400
X218700Y-082400
X218700Y-083400
X218700Y-084400
X218700Y-085400
X218700Y-099700
X220350Y-105000
X220400Y-103200
X221400Y-103200
X221500Y-110000
X222300Y-104100
X223300Y-100800
X225200Y-099700
X226100Y-108100
X226800Y-099330
X227800Y-084700
X227800Y-085700
X227800Y-086700
X228300Y-098800
X228800Y-084700
X228800Y-085700
X228800Y-086700
X229800Y-084700
X229800Y-085700
X229800Y-086700
X230000Y-074900
X230800Y-084700
X230800Y-085700
X230800Y-086700
X231800Y-084700
X231800Y-085700
X231800Y-086700
X232800Y-085200
X233400Y-076800
T3
X194600Y-100120
X194600Y-102660
X194600Y-105200
T4
X231800Y-102300
X234340Y-102300
T5
X172000Y-104000
X177000Y-104000
X152000Y-104000
X157000Y-104000
T6
X233000Y-066000
X141000Y-108000
X233000Y-108000
X141000Y-066000
T0
M30
