G04 #@! TF.GenerationSoftware,KiCad,Pcbnew,(5.1.0-386-g9f189ca71)*
G04 #@! TF.CreationDate,2019-05-02T08:15:31+02:00*
G04 #@! TF.ProjectId,sepic,73657069-632e-46b6-9963-61645f706362,rev?*
G04 #@! TF.SameCoordinates,Original*
G04 #@! TF.FileFunction,Soldermask,Bot*
G04 #@! TF.FilePolarity,Negative*
%FSLAX46Y46*%
G04 Gerber Fmt 4.6, Leading zero omitted, Abs format (unit mm)*
G04 Created by KiCad (PCBNEW (5.1.0-386-g9f189ca71)) date 2019-05-02 08:15:31*
%MOMM*%
%LPD*%
G04 APERTURE LIST*
%ADD10C,0.010000*%
%ADD11C,2.600000*%
%ADD12R,2.600000X2.600000*%
%ADD13C,6.400000*%
%ADD14C,1.440000*%
%ADD15O,1.700000X1.700000*%
%ADD16R,1.700000X1.700000*%
%ADD17C,0.150000*%
%ADD18C,2.750000*%
G04 APERTURE END LIST*
D10*
G36*
X167746400Y-92289054D02*
G01*
X167735535Y-92402993D01*
X167703918Y-92510616D01*
X167653015Y-92609615D01*
X167584293Y-92697684D01*
X167499219Y-92772516D01*
X167402232Y-92830384D01*
X167295964Y-92870005D01*
X167188950Y-92888573D01*
X167083300Y-92887434D01*
X166981125Y-92867930D01*
X166884534Y-92831406D01*
X166795638Y-92779205D01*
X166716546Y-92712673D01*
X166649369Y-92633152D01*
X166596217Y-92541987D01*
X166559199Y-92440523D01*
X166540427Y-92330102D01*
X166538489Y-92280206D01*
X166538489Y-92192267D01*
X166486560Y-92192267D01*
X166450253Y-92195111D01*
X166423355Y-92206911D01*
X166396249Y-92230649D01*
X166357867Y-92269031D01*
X166357867Y-94460602D01*
X166357876Y-94722739D01*
X166357908Y-94963241D01*
X166357972Y-95183048D01*
X166358076Y-95383101D01*
X166358227Y-95564344D01*
X166358434Y-95727716D01*
X166358706Y-95874160D01*
X166359050Y-96004617D01*
X166359474Y-96120029D01*
X166359987Y-96221338D01*
X166360597Y-96309484D01*
X166361312Y-96385410D01*
X166362140Y-96450057D01*
X166363089Y-96504367D01*
X166364167Y-96549280D01*
X166365383Y-96585740D01*
X166366745Y-96614687D01*
X166368261Y-96637063D01*
X166369938Y-96653809D01*
X166371786Y-96665868D01*
X166373813Y-96674180D01*
X166376025Y-96679687D01*
X166377108Y-96681537D01*
X166381271Y-96688549D01*
X166384805Y-96694996D01*
X166388635Y-96700900D01*
X166393682Y-96706286D01*
X166400871Y-96711178D01*
X166411123Y-96715598D01*
X166425364Y-96719572D01*
X166444514Y-96723121D01*
X166469499Y-96726270D01*
X166501240Y-96729042D01*
X166540662Y-96731461D01*
X166588686Y-96733551D01*
X166646237Y-96735335D01*
X166714237Y-96736837D01*
X166793610Y-96738080D01*
X166885279Y-96739089D01*
X166990166Y-96739885D01*
X167109196Y-96740494D01*
X167243290Y-96740939D01*
X167393373Y-96741243D01*
X167560367Y-96741430D01*
X167745196Y-96741524D01*
X167948783Y-96741548D01*
X168172050Y-96741525D01*
X168415922Y-96741480D01*
X168681321Y-96741437D01*
X168719704Y-96741432D01*
X168986682Y-96741389D01*
X169232002Y-96741318D01*
X169456583Y-96741213D01*
X169661345Y-96741066D01*
X169847206Y-96740869D01*
X170015088Y-96740616D01*
X170165908Y-96740300D01*
X170300587Y-96739913D01*
X170420044Y-96739447D01*
X170525199Y-96738897D01*
X170616971Y-96738253D01*
X170696279Y-96737511D01*
X170764043Y-96736661D01*
X170821182Y-96735697D01*
X170868617Y-96734611D01*
X170907266Y-96733397D01*
X170938049Y-96732047D01*
X170961885Y-96730555D01*
X170979694Y-96728911D01*
X170992395Y-96727111D01*
X171000908Y-96725145D01*
X171005266Y-96723477D01*
X171013728Y-96719906D01*
X171021497Y-96717270D01*
X171028602Y-96714634D01*
X171035073Y-96711062D01*
X171040939Y-96705621D01*
X171046229Y-96697375D01*
X171050974Y-96685390D01*
X171055202Y-96668731D01*
X171058943Y-96646463D01*
X171062227Y-96617652D01*
X171065083Y-96581363D01*
X171067540Y-96536661D01*
X171069629Y-96482611D01*
X171071378Y-96418279D01*
X171072817Y-96342730D01*
X171073976Y-96255030D01*
X171074883Y-96154243D01*
X171075569Y-96039434D01*
X171076063Y-95909670D01*
X171076395Y-95764015D01*
X171076593Y-95601535D01*
X171076687Y-95421295D01*
X171076708Y-95222360D01*
X171076685Y-95003796D01*
X171076646Y-94764668D01*
X171076622Y-94504040D01*
X171076622Y-94461889D01*
X171076636Y-94198992D01*
X171076661Y-93957732D01*
X171076671Y-93737165D01*
X171076642Y-93536352D01*
X171076548Y-93354349D01*
X171076362Y-93190216D01*
X171076059Y-93043011D01*
X171075614Y-92911792D01*
X171075034Y-92801867D01*
X170772197Y-92801867D01*
X170732407Y-92859711D01*
X170721236Y-92875479D01*
X170711166Y-92889441D01*
X170702138Y-92902784D01*
X170694097Y-92916693D01*
X170686986Y-92932356D01*
X170680747Y-92950958D01*
X170675325Y-92973686D01*
X170670662Y-93001727D01*
X170666701Y-93036267D01*
X170663385Y-93078492D01*
X170660659Y-93129589D01*
X170658464Y-93190744D01*
X170656745Y-93263144D01*
X170655444Y-93347975D01*
X170654505Y-93446422D01*
X170653870Y-93559674D01*
X170653484Y-93688916D01*
X170653288Y-93835334D01*
X170653227Y-94000116D01*
X170653243Y-94184447D01*
X170653280Y-94389513D01*
X170653289Y-94512133D01*
X170653265Y-94729082D01*
X170653231Y-94924642D01*
X170653243Y-95099999D01*
X170653358Y-95256341D01*
X170653630Y-95394857D01*
X170654118Y-95516734D01*
X170654876Y-95623160D01*
X170655962Y-95715322D01*
X170657431Y-95794409D01*
X170659340Y-95861608D01*
X170661744Y-95918107D01*
X170664701Y-95965093D01*
X170668266Y-96003755D01*
X170672495Y-96035280D01*
X170677446Y-96060855D01*
X170683173Y-96081670D01*
X170689733Y-96098911D01*
X170697183Y-96113765D01*
X170705579Y-96127422D01*
X170714976Y-96141069D01*
X170725432Y-96155893D01*
X170731523Y-96164783D01*
X170770296Y-96222400D01*
X170238732Y-96222400D01*
X170115483Y-96222365D01*
X170012987Y-96222215D01*
X169929420Y-96221878D01*
X169862956Y-96221286D01*
X169811771Y-96220367D01*
X169774041Y-96219051D01*
X169747940Y-96217269D01*
X169731644Y-96214951D01*
X169723328Y-96212026D01*
X169721168Y-96208424D01*
X169723339Y-96204075D01*
X169724535Y-96202645D01*
X169749685Y-96165573D01*
X169775583Y-96112772D01*
X169799192Y-96050770D01*
X169807461Y-96024357D01*
X169812078Y-96006416D01*
X169815979Y-95985355D01*
X169819248Y-95959089D01*
X169821966Y-95925532D01*
X169824215Y-95882599D01*
X169826077Y-95828204D01*
X169827636Y-95760262D01*
X169828972Y-95676688D01*
X169830169Y-95575395D01*
X169831308Y-95454300D01*
X169831685Y-95409600D01*
X169832702Y-95284449D01*
X169833460Y-95180082D01*
X169833903Y-95094707D01*
X169833970Y-95026533D01*
X169833605Y-94973765D01*
X169832748Y-94934614D01*
X169831341Y-94907285D01*
X169829325Y-94889986D01*
X169826643Y-94880926D01*
X169823236Y-94878312D01*
X169819044Y-94880351D01*
X169814571Y-94884667D01*
X169804216Y-94897602D01*
X169782158Y-94926676D01*
X169749957Y-94969759D01*
X169709174Y-95024718D01*
X169661370Y-95089423D01*
X169608105Y-95161742D01*
X169550940Y-95239544D01*
X169491437Y-95320698D01*
X169431155Y-95403072D01*
X169371655Y-95484536D01*
X169314498Y-95562957D01*
X169261245Y-95636204D01*
X169213457Y-95702147D01*
X169172693Y-95758654D01*
X169140516Y-95803593D01*
X169118485Y-95834834D01*
X169113917Y-95841466D01*
X169090996Y-95878369D01*
X169064188Y-95926359D01*
X169038789Y-95975897D01*
X169035568Y-95982577D01*
X169013890Y-96030772D01*
X169001304Y-96068334D01*
X168995574Y-96104160D01*
X168994456Y-96146200D01*
X168995090Y-96222400D01*
X167840651Y-96222400D01*
X167931815Y-96128669D01*
X167978612Y-96078775D01*
X168028899Y-96022295D01*
X168074944Y-95968026D01*
X168095369Y-95942673D01*
X168125807Y-95903128D01*
X168165862Y-95849916D01*
X168214361Y-95784667D01*
X168270135Y-95709011D01*
X168332011Y-95624577D01*
X168398819Y-95532994D01*
X168469387Y-95435892D01*
X168542545Y-95334901D01*
X168617121Y-95231650D01*
X168691944Y-95127768D01*
X168765843Y-95024885D01*
X168837646Y-94924631D01*
X168906184Y-94828636D01*
X168970284Y-94738527D01*
X169028775Y-94655936D01*
X169080486Y-94582492D01*
X169124247Y-94519824D01*
X169158885Y-94469561D01*
X169183230Y-94433334D01*
X169196111Y-94412771D01*
X169197869Y-94408668D01*
X169189910Y-94397342D01*
X169169115Y-94370162D01*
X169136847Y-94328829D01*
X169094470Y-94275044D01*
X169043347Y-94210506D01*
X168984841Y-94136918D01*
X168920314Y-94055978D01*
X168851131Y-93969388D01*
X168778653Y-93878848D01*
X168704246Y-93786060D01*
X168644517Y-93711702D01*
X167633511Y-93711702D01*
X167627602Y-93724659D01*
X167613272Y-93746908D01*
X167612225Y-93748391D01*
X167593438Y-93778544D01*
X167573791Y-93815375D01*
X167569892Y-93823511D01*
X167566356Y-93831940D01*
X167563230Y-93842059D01*
X167560486Y-93855260D01*
X167558092Y-93872938D01*
X167556019Y-93896484D01*
X167554235Y-93927293D01*
X167552712Y-93966757D01*
X167551419Y-94016269D01*
X167550326Y-94077223D01*
X167549403Y-94151011D01*
X167548619Y-94239028D01*
X167547945Y-94342665D01*
X167547350Y-94463316D01*
X167546805Y-94602374D01*
X167546279Y-94761232D01*
X167545745Y-94940089D01*
X167545206Y-95125207D01*
X167544772Y-95289145D01*
X167544509Y-95433303D01*
X167544484Y-95559079D01*
X167544765Y-95667871D01*
X167545419Y-95761077D01*
X167546514Y-95840097D01*
X167548118Y-95906328D01*
X167550297Y-95961170D01*
X167553119Y-96006021D01*
X167556651Y-96042278D01*
X167560961Y-96071341D01*
X167566117Y-96094609D01*
X167572185Y-96113479D01*
X167579233Y-96129351D01*
X167587329Y-96143622D01*
X167596540Y-96157691D01*
X167605040Y-96170158D01*
X167622176Y-96196452D01*
X167632322Y-96214037D01*
X167633511Y-96217257D01*
X167622604Y-96218334D01*
X167591411Y-96219335D01*
X167542223Y-96220235D01*
X167477333Y-96221010D01*
X167399030Y-96221637D01*
X167309607Y-96222091D01*
X167211356Y-96222349D01*
X167142445Y-96222400D01*
X167037452Y-96222180D01*
X166940610Y-96221548D01*
X166854107Y-96220549D01*
X166780132Y-96219227D01*
X166720874Y-96217626D01*
X166678520Y-96215791D01*
X166655260Y-96213765D01*
X166651378Y-96212493D01*
X166659076Y-96197591D01*
X166667074Y-96189560D01*
X166680246Y-96172434D01*
X166697485Y-96142183D01*
X166709407Y-96117622D01*
X166736045Y-96058711D01*
X166739120Y-94881845D01*
X166742195Y-93704978D01*
X167187853Y-93704978D01*
X167285670Y-93705142D01*
X167376064Y-93705611D01*
X167456630Y-93706347D01*
X167524962Y-93707316D01*
X167578656Y-93708480D01*
X167615305Y-93709803D01*
X167632504Y-93711249D01*
X167633511Y-93711702D01*
X168644517Y-93711702D01*
X168629270Y-93692722D01*
X168555090Y-93600537D01*
X168483069Y-93511204D01*
X168414569Y-93426424D01*
X168350955Y-93347898D01*
X168293588Y-93277326D01*
X168243833Y-93216409D01*
X168203052Y-93166847D01*
X168185888Y-93146178D01*
X168099596Y-93045516D01*
X168022997Y-92962259D01*
X167954183Y-92894438D01*
X167891248Y-92840089D01*
X167881867Y-92832722D01*
X167842356Y-92802117D01*
X168974116Y-92801867D01*
X168968827Y-92849844D01*
X168972130Y-92907188D01*
X168993661Y-92975463D01*
X169033635Y-93055212D01*
X169078943Y-93127495D01*
X169095161Y-93150140D01*
X169123214Y-93187696D01*
X169161430Y-93238021D01*
X169208137Y-93298973D01*
X169261661Y-93368411D01*
X169320331Y-93444194D01*
X169382475Y-93524180D01*
X169446421Y-93606228D01*
X169510495Y-93688196D01*
X169573027Y-93767943D01*
X169632343Y-93843327D01*
X169686771Y-93912207D01*
X169734639Y-93972442D01*
X169774275Y-94021889D01*
X169804006Y-94058408D01*
X169822161Y-94079858D01*
X169825220Y-94083156D01*
X169828079Y-94075149D01*
X169830293Y-94044855D01*
X169831857Y-93992556D01*
X169832767Y-93918531D01*
X169833020Y-93823063D01*
X169832613Y-93706434D01*
X169831704Y-93586445D01*
X169830382Y-93454333D01*
X169828857Y-93342594D01*
X169826881Y-93249025D01*
X169824206Y-93171419D01*
X169820582Y-93107574D01*
X169815761Y-93055283D01*
X169809494Y-93012344D01*
X169801532Y-92976551D01*
X169791627Y-92945700D01*
X169779531Y-92917586D01*
X169764993Y-92890005D01*
X169750311Y-92864966D01*
X169712314Y-92801867D01*
X170772197Y-92801867D01*
X171075034Y-92801867D01*
X171075001Y-92795617D01*
X171074195Y-92693544D01*
X171073170Y-92604633D01*
X171071900Y-92527941D01*
X171070360Y-92462527D01*
X171068524Y-92407449D01*
X171066367Y-92361765D01*
X171063863Y-92324534D01*
X171060987Y-92294813D01*
X171057713Y-92271662D01*
X171054015Y-92254139D01*
X171049869Y-92241301D01*
X171045247Y-92232208D01*
X171040126Y-92225918D01*
X171034478Y-92221488D01*
X171028279Y-92217978D01*
X171021504Y-92214445D01*
X171015508Y-92210876D01*
X171010275Y-92208300D01*
X171002099Y-92205972D01*
X170989886Y-92203878D01*
X170972541Y-92202007D01*
X170948969Y-92200347D01*
X170918077Y-92198884D01*
X170878768Y-92197608D01*
X170829950Y-92196504D01*
X170770527Y-92195561D01*
X170699404Y-92194767D01*
X170615488Y-92194109D01*
X170517683Y-92193575D01*
X170404894Y-92193153D01*
X170276029Y-92192829D01*
X170129991Y-92192592D01*
X169965686Y-92192430D01*
X169782020Y-92192330D01*
X169577897Y-92192280D01*
X169366753Y-92192267D01*
X167746400Y-92192267D01*
X167746400Y-92289054D01*
X167746400Y-92289054D01*
G37*
X167746400Y-92289054D02*
X167735535Y-92402993D01*
X167703918Y-92510616D01*
X167653015Y-92609615D01*
X167584293Y-92697684D01*
X167499219Y-92772516D01*
X167402232Y-92830384D01*
X167295964Y-92870005D01*
X167188950Y-92888573D01*
X167083300Y-92887434D01*
X166981125Y-92867930D01*
X166884534Y-92831406D01*
X166795638Y-92779205D01*
X166716546Y-92712673D01*
X166649369Y-92633152D01*
X166596217Y-92541987D01*
X166559199Y-92440523D01*
X166540427Y-92330102D01*
X166538489Y-92280206D01*
X166538489Y-92192267D01*
X166486560Y-92192267D01*
X166450253Y-92195111D01*
X166423355Y-92206911D01*
X166396249Y-92230649D01*
X166357867Y-92269031D01*
X166357867Y-94460602D01*
X166357876Y-94722739D01*
X166357908Y-94963241D01*
X166357972Y-95183048D01*
X166358076Y-95383101D01*
X166358227Y-95564344D01*
X166358434Y-95727716D01*
X166358706Y-95874160D01*
X166359050Y-96004617D01*
X166359474Y-96120029D01*
X166359987Y-96221338D01*
X166360597Y-96309484D01*
X166361312Y-96385410D01*
X166362140Y-96450057D01*
X166363089Y-96504367D01*
X166364167Y-96549280D01*
X166365383Y-96585740D01*
X166366745Y-96614687D01*
X166368261Y-96637063D01*
X166369938Y-96653809D01*
X166371786Y-96665868D01*
X166373813Y-96674180D01*
X166376025Y-96679687D01*
X166377108Y-96681537D01*
X166381271Y-96688549D01*
X166384805Y-96694996D01*
X166388635Y-96700900D01*
X166393682Y-96706286D01*
X166400871Y-96711178D01*
X166411123Y-96715598D01*
X166425364Y-96719572D01*
X166444514Y-96723121D01*
X166469499Y-96726270D01*
X166501240Y-96729042D01*
X166540662Y-96731461D01*
X166588686Y-96733551D01*
X166646237Y-96735335D01*
X166714237Y-96736837D01*
X166793610Y-96738080D01*
X166885279Y-96739089D01*
X166990166Y-96739885D01*
X167109196Y-96740494D01*
X167243290Y-96740939D01*
X167393373Y-96741243D01*
X167560367Y-96741430D01*
X167745196Y-96741524D01*
X167948783Y-96741548D01*
X168172050Y-96741525D01*
X168415922Y-96741480D01*
X168681321Y-96741437D01*
X168719704Y-96741432D01*
X168986682Y-96741389D01*
X169232002Y-96741318D01*
X169456583Y-96741213D01*
X169661345Y-96741066D01*
X169847206Y-96740869D01*
X170015088Y-96740616D01*
X170165908Y-96740300D01*
X170300587Y-96739913D01*
X170420044Y-96739447D01*
X170525199Y-96738897D01*
X170616971Y-96738253D01*
X170696279Y-96737511D01*
X170764043Y-96736661D01*
X170821182Y-96735697D01*
X170868617Y-96734611D01*
X170907266Y-96733397D01*
X170938049Y-96732047D01*
X170961885Y-96730555D01*
X170979694Y-96728911D01*
X170992395Y-96727111D01*
X171000908Y-96725145D01*
X171005266Y-96723477D01*
X171013728Y-96719906D01*
X171021497Y-96717270D01*
X171028602Y-96714634D01*
X171035073Y-96711062D01*
X171040939Y-96705621D01*
X171046229Y-96697375D01*
X171050974Y-96685390D01*
X171055202Y-96668731D01*
X171058943Y-96646463D01*
X171062227Y-96617652D01*
X171065083Y-96581363D01*
X171067540Y-96536661D01*
X171069629Y-96482611D01*
X171071378Y-96418279D01*
X171072817Y-96342730D01*
X171073976Y-96255030D01*
X171074883Y-96154243D01*
X171075569Y-96039434D01*
X171076063Y-95909670D01*
X171076395Y-95764015D01*
X171076593Y-95601535D01*
X171076687Y-95421295D01*
X171076708Y-95222360D01*
X171076685Y-95003796D01*
X171076646Y-94764668D01*
X171076622Y-94504040D01*
X171076622Y-94461889D01*
X171076636Y-94198992D01*
X171076661Y-93957732D01*
X171076671Y-93737165D01*
X171076642Y-93536352D01*
X171076548Y-93354349D01*
X171076362Y-93190216D01*
X171076059Y-93043011D01*
X171075614Y-92911792D01*
X171075034Y-92801867D01*
X170772197Y-92801867D01*
X170732407Y-92859711D01*
X170721236Y-92875479D01*
X170711166Y-92889441D01*
X170702138Y-92902784D01*
X170694097Y-92916693D01*
X170686986Y-92932356D01*
X170680747Y-92950958D01*
X170675325Y-92973686D01*
X170670662Y-93001727D01*
X170666701Y-93036267D01*
X170663385Y-93078492D01*
X170660659Y-93129589D01*
X170658464Y-93190744D01*
X170656745Y-93263144D01*
X170655444Y-93347975D01*
X170654505Y-93446422D01*
X170653870Y-93559674D01*
X170653484Y-93688916D01*
X170653288Y-93835334D01*
X170653227Y-94000116D01*
X170653243Y-94184447D01*
X170653280Y-94389513D01*
X170653289Y-94512133D01*
X170653265Y-94729082D01*
X170653231Y-94924642D01*
X170653243Y-95099999D01*
X170653358Y-95256341D01*
X170653630Y-95394857D01*
X170654118Y-95516734D01*
X170654876Y-95623160D01*
X170655962Y-95715322D01*
X170657431Y-95794409D01*
X170659340Y-95861608D01*
X170661744Y-95918107D01*
X170664701Y-95965093D01*
X170668266Y-96003755D01*
X170672495Y-96035280D01*
X170677446Y-96060855D01*
X170683173Y-96081670D01*
X170689733Y-96098911D01*
X170697183Y-96113765D01*
X170705579Y-96127422D01*
X170714976Y-96141069D01*
X170725432Y-96155893D01*
X170731523Y-96164783D01*
X170770296Y-96222400D01*
X170238732Y-96222400D01*
X170115483Y-96222365D01*
X170012987Y-96222215D01*
X169929420Y-96221878D01*
X169862956Y-96221286D01*
X169811771Y-96220367D01*
X169774041Y-96219051D01*
X169747940Y-96217269D01*
X169731644Y-96214951D01*
X169723328Y-96212026D01*
X169721168Y-96208424D01*
X169723339Y-96204075D01*
X169724535Y-96202645D01*
X169749685Y-96165573D01*
X169775583Y-96112772D01*
X169799192Y-96050770D01*
X169807461Y-96024357D01*
X169812078Y-96006416D01*
X169815979Y-95985355D01*
X169819248Y-95959089D01*
X169821966Y-95925532D01*
X169824215Y-95882599D01*
X169826077Y-95828204D01*
X169827636Y-95760262D01*
X169828972Y-95676688D01*
X169830169Y-95575395D01*
X169831308Y-95454300D01*
X169831685Y-95409600D01*
X169832702Y-95284449D01*
X169833460Y-95180082D01*
X169833903Y-95094707D01*
X169833970Y-95026533D01*
X169833605Y-94973765D01*
X169832748Y-94934614D01*
X169831341Y-94907285D01*
X169829325Y-94889986D01*
X169826643Y-94880926D01*
X169823236Y-94878312D01*
X169819044Y-94880351D01*
X169814571Y-94884667D01*
X169804216Y-94897602D01*
X169782158Y-94926676D01*
X169749957Y-94969759D01*
X169709174Y-95024718D01*
X169661370Y-95089423D01*
X169608105Y-95161742D01*
X169550940Y-95239544D01*
X169491437Y-95320698D01*
X169431155Y-95403072D01*
X169371655Y-95484536D01*
X169314498Y-95562957D01*
X169261245Y-95636204D01*
X169213457Y-95702147D01*
X169172693Y-95758654D01*
X169140516Y-95803593D01*
X169118485Y-95834834D01*
X169113917Y-95841466D01*
X169090996Y-95878369D01*
X169064188Y-95926359D01*
X169038789Y-95975897D01*
X169035568Y-95982577D01*
X169013890Y-96030772D01*
X169001304Y-96068334D01*
X168995574Y-96104160D01*
X168994456Y-96146200D01*
X168995090Y-96222400D01*
X167840651Y-96222400D01*
X167931815Y-96128669D01*
X167978612Y-96078775D01*
X168028899Y-96022295D01*
X168074944Y-95968026D01*
X168095369Y-95942673D01*
X168125807Y-95903128D01*
X168165862Y-95849916D01*
X168214361Y-95784667D01*
X168270135Y-95709011D01*
X168332011Y-95624577D01*
X168398819Y-95532994D01*
X168469387Y-95435892D01*
X168542545Y-95334901D01*
X168617121Y-95231650D01*
X168691944Y-95127768D01*
X168765843Y-95024885D01*
X168837646Y-94924631D01*
X168906184Y-94828636D01*
X168970284Y-94738527D01*
X169028775Y-94655936D01*
X169080486Y-94582492D01*
X169124247Y-94519824D01*
X169158885Y-94469561D01*
X169183230Y-94433334D01*
X169196111Y-94412771D01*
X169197869Y-94408668D01*
X169189910Y-94397342D01*
X169169115Y-94370162D01*
X169136847Y-94328829D01*
X169094470Y-94275044D01*
X169043347Y-94210506D01*
X168984841Y-94136918D01*
X168920314Y-94055978D01*
X168851131Y-93969388D01*
X168778653Y-93878848D01*
X168704246Y-93786060D01*
X168644517Y-93711702D01*
X167633511Y-93711702D01*
X167627602Y-93724659D01*
X167613272Y-93746908D01*
X167612225Y-93748391D01*
X167593438Y-93778544D01*
X167573791Y-93815375D01*
X167569892Y-93823511D01*
X167566356Y-93831940D01*
X167563230Y-93842059D01*
X167560486Y-93855260D01*
X167558092Y-93872938D01*
X167556019Y-93896484D01*
X167554235Y-93927293D01*
X167552712Y-93966757D01*
X167551419Y-94016269D01*
X167550326Y-94077223D01*
X167549403Y-94151011D01*
X167548619Y-94239028D01*
X167547945Y-94342665D01*
X167547350Y-94463316D01*
X167546805Y-94602374D01*
X167546279Y-94761232D01*
X167545745Y-94940089D01*
X167545206Y-95125207D01*
X167544772Y-95289145D01*
X167544509Y-95433303D01*
X167544484Y-95559079D01*
X167544765Y-95667871D01*
X167545419Y-95761077D01*
X167546514Y-95840097D01*
X167548118Y-95906328D01*
X167550297Y-95961170D01*
X167553119Y-96006021D01*
X167556651Y-96042278D01*
X167560961Y-96071341D01*
X167566117Y-96094609D01*
X167572185Y-96113479D01*
X167579233Y-96129351D01*
X167587329Y-96143622D01*
X167596540Y-96157691D01*
X167605040Y-96170158D01*
X167622176Y-96196452D01*
X167632322Y-96214037D01*
X167633511Y-96217257D01*
X167622604Y-96218334D01*
X167591411Y-96219335D01*
X167542223Y-96220235D01*
X167477333Y-96221010D01*
X167399030Y-96221637D01*
X167309607Y-96222091D01*
X167211356Y-96222349D01*
X167142445Y-96222400D01*
X167037452Y-96222180D01*
X166940610Y-96221548D01*
X166854107Y-96220549D01*
X166780132Y-96219227D01*
X166720874Y-96217626D01*
X166678520Y-96215791D01*
X166655260Y-96213765D01*
X166651378Y-96212493D01*
X166659076Y-96197591D01*
X166667074Y-96189560D01*
X166680246Y-96172434D01*
X166697485Y-96142183D01*
X166709407Y-96117622D01*
X166736045Y-96058711D01*
X166739120Y-94881845D01*
X166742195Y-93704978D01*
X167187853Y-93704978D01*
X167285670Y-93705142D01*
X167376064Y-93705611D01*
X167456630Y-93706347D01*
X167524962Y-93707316D01*
X167578656Y-93708480D01*
X167615305Y-93709803D01*
X167632504Y-93711249D01*
X167633511Y-93711702D01*
X168644517Y-93711702D01*
X168629270Y-93692722D01*
X168555090Y-93600537D01*
X168483069Y-93511204D01*
X168414569Y-93426424D01*
X168350955Y-93347898D01*
X168293588Y-93277326D01*
X168243833Y-93216409D01*
X168203052Y-93166847D01*
X168185888Y-93146178D01*
X168099596Y-93045516D01*
X168022997Y-92962259D01*
X167954183Y-92894438D01*
X167891248Y-92840089D01*
X167881867Y-92832722D01*
X167842356Y-92802117D01*
X168974116Y-92801867D01*
X168968827Y-92849844D01*
X168972130Y-92907188D01*
X168993661Y-92975463D01*
X169033635Y-93055212D01*
X169078943Y-93127495D01*
X169095161Y-93150140D01*
X169123214Y-93187696D01*
X169161430Y-93238021D01*
X169208137Y-93298973D01*
X169261661Y-93368411D01*
X169320331Y-93444194D01*
X169382475Y-93524180D01*
X169446421Y-93606228D01*
X169510495Y-93688196D01*
X169573027Y-93767943D01*
X169632343Y-93843327D01*
X169686771Y-93912207D01*
X169734639Y-93972442D01*
X169774275Y-94021889D01*
X169804006Y-94058408D01*
X169822161Y-94079858D01*
X169825220Y-94083156D01*
X169828079Y-94075149D01*
X169830293Y-94044855D01*
X169831857Y-93992556D01*
X169832767Y-93918531D01*
X169833020Y-93823063D01*
X169832613Y-93706434D01*
X169831704Y-93586445D01*
X169830382Y-93454333D01*
X169828857Y-93342594D01*
X169826881Y-93249025D01*
X169824206Y-93171419D01*
X169820582Y-93107574D01*
X169815761Y-93055283D01*
X169809494Y-93012344D01*
X169801532Y-92976551D01*
X169791627Y-92945700D01*
X169779531Y-92917586D01*
X169764993Y-92890005D01*
X169750311Y-92864966D01*
X169712314Y-92801867D01*
X170772197Y-92801867D01*
X171075034Y-92801867D01*
X171075001Y-92795617D01*
X171074195Y-92693544D01*
X171073170Y-92604633D01*
X171071900Y-92527941D01*
X171070360Y-92462527D01*
X171068524Y-92407449D01*
X171066367Y-92361765D01*
X171063863Y-92324534D01*
X171060987Y-92294813D01*
X171057713Y-92271662D01*
X171054015Y-92254139D01*
X171049869Y-92241301D01*
X171045247Y-92232208D01*
X171040126Y-92225918D01*
X171034478Y-92221488D01*
X171028279Y-92217978D01*
X171021504Y-92214445D01*
X171015508Y-92210876D01*
X171010275Y-92208300D01*
X171002099Y-92205972D01*
X170989886Y-92203878D01*
X170972541Y-92202007D01*
X170948969Y-92200347D01*
X170918077Y-92198884D01*
X170878768Y-92197608D01*
X170829950Y-92196504D01*
X170770527Y-92195561D01*
X170699404Y-92194767D01*
X170615488Y-92194109D01*
X170517683Y-92193575D01*
X170404894Y-92193153D01*
X170276029Y-92192829D01*
X170129991Y-92192592D01*
X169965686Y-92192430D01*
X169782020Y-92192330D01*
X169577897Y-92192280D01*
X169366753Y-92192267D01*
X167746400Y-92192267D01*
X167746400Y-92289054D01*
G36*
X164471571Y-92749071D02*
G01*
X164311430Y-92770245D01*
X164147490Y-92810385D01*
X163977687Y-92869889D01*
X163799957Y-92949154D01*
X163788690Y-92954699D01*
X163730995Y-92982725D01*
X163679448Y-93006802D01*
X163637809Y-93025249D01*
X163609838Y-93036386D01*
X163600267Y-93038933D01*
X163581050Y-93043941D01*
X163576439Y-93048147D01*
X163581542Y-93058580D01*
X163597582Y-93084868D01*
X163622712Y-93124257D01*
X163655086Y-93173991D01*
X163692857Y-93231315D01*
X163734178Y-93293476D01*
X163777202Y-93357718D01*
X163820083Y-93421285D01*
X163860974Y-93481425D01*
X163898029Y-93535380D01*
X163929400Y-93580397D01*
X163953241Y-93613721D01*
X163967706Y-93632597D01*
X163969691Y-93634787D01*
X163979809Y-93630138D01*
X164002150Y-93612962D01*
X164032720Y-93586440D01*
X164048464Y-93571964D01*
X164144953Y-93496682D01*
X164251664Y-93441241D01*
X164367168Y-93406141D01*
X164490038Y-93391880D01*
X164559439Y-93393051D01*
X164680577Y-93410212D01*
X164789795Y-93446094D01*
X164887418Y-93500959D01*
X164973772Y-93575070D01*
X165049185Y-93668688D01*
X165113982Y-93782076D01*
X165151399Y-93868667D01*
X165195252Y-94004366D01*
X165227572Y-94151850D01*
X165248443Y-94307314D01*
X165257949Y-94466956D01*
X165256173Y-94626973D01*
X165243197Y-94783561D01*
X165219106Y-94932918D01*
X165183982Y-95071240D01*
X165137908Y-95194724D01*
X165121627Y-95228978D01*
X165053380Y-95343064D01*
X164972921Y-95439557D01*
X164881430Y-95517670D01*
X164780089Y-95576617D01*
X164670080Y-95615612D01*
X164552585Y-95633868D01*
X164511117Y-95635211D01*
X164389559Y-95624290D01*
X164269122Y-95591474D01*
X164151334Y-95537439D01*
X164037723Y-95462865D01*
X163946315Y-95384539D01*
X163899785Y-95340008D01*
X163718517Y-95637271D01*
X163673420Y-95711433D01*
X163632181Y-95779646D01*
X163596265Y-95839459D01*
X163567134Y-95888420D01*
X163546250Y-95924079D01*
X163535076Y-95943984D01*
X163533625Y-95947079D01*
X163541854Y-95956718D01*
X163567433Y-95973999D01*
X163607127Y-95997283D01*
X163657703Y-96024934D01*
X163715926Y-96055315D01*
X163778563Y-96086790D01*
X163842379Y-96117722D01*
X163904140Y-96146473D01*
X163960612Y-96171408D01*
X164008562Y-96190889D01*
X164032014Y-96199318D01*
X164165779Y-96237133D01*
X164303673Y-96262136D01*
X164451378Y-96275140D01*
X164578167Y-96277468D01*
X164646122Y-96276373D01*
X164711723Y-96274275D01*
X164769153Y-96271434D01*
X164812597Y-96268106D01*
X164826702Y-96266422D01*
X164965716Y-96237587D01*
X165107243Y-96192468D01*
X165244725Y-96133750D01*
X165371606Y-96064120D01*
X165449111Y-96011441D01*
X165576519Y-95903239D01*
X165694822Y-95776671D01*
X165801828Y-95634866D01*
X165895348Y-95480951D01*
X165973190Y-95318053D01*
X166017044Y-95200756D01*
X166067292Y-95017128D01*
X166100791Y-94822581D01*
X166117551Y-94621325D01*
X166117584Y-94417568D01*
X166100899Y-94215521D01*
X166067507Y-94019392D01*
X166017420Y-93833391D01*
X166013603Y-93821803D01*
X165950719Y-93659750D01*
X165873972Y-93511832D01*
X165780758Y-93373865D01*
X165668473Y-93241661D01*
X165624608Y-93196399D01*
X165488466Y-93072457D01*
X165348509Y-92969915D01*
X165202589Y-92887656D01*
X165048558Y-92824564D01*
X164884268Y-92779523D01*
X164788711Y-92762033D01*
X164629977Y-92746466D01*
X164471571Y-92749071D01*
X164471571Y-92749071D01*
G37*
X164471571Y-92749071D02*
X164311430Y-92770245D01*
X164147490Y-92810385D01*
X163977687Y-92869889D01*
X163799957Y-92949154D01*
X163788690Y-92954699D01*
X163730995Y-92982725D01*
X163679448Y-93006802D01*
X163637809Y-93025249D01*
X163609838Y-93036386D01*
X163600267Y-93038933D01*
X163581050Y-93043941D01*
X163576439Y-93048147D01*
X163581542Y-93058580D01*
X163597582Y-93084868D01*
X163622712Y-93124257D01*
X163655086Y-93173991D01*
X163692857Y-93231315D01*
X163734178Y-93293476D01*
X163777202Y-93357718D01*
X163820083Y-93421285D01*
X163860974Y-93481425D01*
X163898029Y-93535380D01*
X163929400Y-93580397D01*
X163953241Y-93613721D01*
X163967706Y-93632597D01*
X163969691Y-93634787D01*
X163979809Y-93630138D01*
X164002150Y-93612962D01*
X164032720Y-93586440D01*
X164048464Y-93571964D01*
X164144953Y-93496682D01*
X164251664Y-93441241D01*
X164367168Y-93406141D01*
X164490038Y-93391880D01*
X164559439Y-93393051D01*
X164680577Y-93410212D01*
X164789795Y-93446094D01*
X164887418Y-93500959D01*
X164973772Y-93575070D01*
X165049185Y-93668688D01*
X165113982Y-93782076D01*
X165151399Y-93868667D01*
X165195252Y-94004366D01*
X165227572Y-94151850D01*
X165248443Y-94307314D01*
X165257949Y-94466956D01*
X165256173Y-94626973D01*
X165243197Y-94783561D01*
X165219106Y-94932918D01*
X165183982Y-95071240D01*
X165137908Y-95194724D01*
X165121627Y-95228978D01*
X165053380Y-95343064D01*
X164972921Y-95439557D01*
X164881430Y-95517670D01*
X164780089Y-95576617D01*
X164670080Y-95615612D01*
X164552585Y-95633868D01*
X164511117Y-95635211D01*
X164389559Y-95624290D01*
X164269122Y-95591474D01*
X164151334Y-95537439D01*
X164037723Y-95462865D01*
X163946315Y-95384539D01*
X163899785Y-95340008D01*
X163718517Y-95637271D01*
X163673420Y-95711433D01*
X163632181Y-95779646D01*
X163596265Y-95839459D01*
X163567134Y-95888420D01*
X163546250Y-95924079D01*
X163535076Y-95943984D01*
X163533625Y-95947079D01*
X163541854Y-95956718D01*
X163567433Y-95973999D01*
X163607127Y-95997283D01*
X163657703Y-96024934D01*
X163715926Y-96055315D01*
X163778563Y-96086790D01*
X163842379Y-96117722D01*
X163904140Y-96146473D01*
X163960612Y-96171408D01*
X164008562Y-96190889D01*
X164032014Y-96199318D01*
X164165779Y-96237133D01*
X164303673Y-96262136D01*
X164451378Y-96275140D01*
X164578167Y-96277468D01*
X164646122Y-96276373D01*
X164711723Y-96274275D01*
X164769153Y-96271434D01*
X164812597Y-96268106D01*
X164826702Y-96266422D01*
X164965716Y-96237587D01*
X165107243Y-96192468D01*
X165244725Y-96133750D01*
X165371606Y-96064120D01*
X165449111Y-96011441D01*
X165576519Y-95903239D01*
X165694822Y-95776671D01*
X165801828Y-95634866D01*
X165895348Y-95480951D01*
X165973190Y-95318053D01*
X166017044Y-95200756D01*
X166067292Y-95017128D01*
X166100791Y-94822581D01*
X166117551Y-94621325D01*
X166117584Y-94417568D01*
X166100899Y-94215521D01*
X166067507Y-94019392D01*
X166017420Y-93833391D01*
X166013603Y-93821803D01*
X165950719Y-93659750D01*
X165873972Y-93511832D01*
X165780758Y-93373865D01*
X165668473Y-93241661D01*
X165624608Y-93196399D01*
X165488466Y-93072457D01*
X165348509Y-92969915D01*
X165202589Y-92887656D01*
X165048558Y-92824564D01*
X164884268Y-92779523D01*
X164788711Y-92762033D01*
X164629977Y-92746466D01*
X164471571Y-92749071D01*
G36*
X162126426Y-93666552D02*
G01*
X161974508Y-93686567D01*
X161839244Y-93720202D01*
X161719761Y-93767725D01*
X161615185Y-93829405D01*
X161537576Y-93892965D01*
X161468735Y-93967099D01*
X161414994Y-94046871D01*
X161372090Y-94139091D01*
X161356616Y-94182161D01*
X161343756Y-94221142D01*
X161332554Y-94257289D01*
X161322880Y-94292434D01*
X161314604Y-94328410D01*
X161307597Y-94367050D01*
X161301728Y-94410185D01*
X161296869Y-94459649D01*
X161292890Y-94517273D01*
X161289660Y-94584891D01*
X161287051Y-94664334D01*
X161284933Y-94757436D01*
X161283176Y-94866027D01*
X161281651Y-94991942D01*
X161280228Y-95137012D01*
X161278975Y-95279778D01*
X161277649Y-95435968D01*
X161276444Y-95571239D01*
X161275234Y-95687246D01*
X161273894Y-95785645D01*
X161272300Y-95868093D01*
X161270325Y-95936246D01*
X161267844Y-95991760D01*
X161264731Y-96036292D01*
X161260862Y-96071498D01*
X161256111Y-96099034D01*
X161250352Y-96120556D01*
X161243461Y-96137722D01*
X161235311Y-96152186D01*
X161225777Y-96165606D01*
X161214734Y-96179638D01*
X161210434Y-96185071D01*
X161194614Y-96207910D01*
X161187578Y-96223463D01*
X161187556Y-96223922D01*
X161198433Y-96226121D01*
X161229418Y-96228147D01*
X161278043Y-96229942D01*
X161341837Y-96231451D01*
X161418331Y-96232616D01*
X161505056Y-96233380D01*
X161599543Y-96233686D01*
X161610450Y-96233689D01*
X162033343Y-96233689D01*
X162036605Y-96137622D01*
X162039867Y-96041556D01*
X162101956Y-96092543D01*
X162199286Y-96160057D01*
X162309187Y-96214749D01*
X162395651Y-96244978D01*
X162464722Y-96259666D01*
X162548075Y-96269659D01*
X162637841Y-96274646D01*
X162726155Y-96274313D01*
X162805149Y-96268351D01*
X162841378Y-96262638D01*
X162981397Y-96224776D01*
X163107822Y-96169932D01*
X163219740Y-96098924D01*
X163316238Y-96012568D01*
X163396400Y-95911679D01*
X163459313Y-95797076D01*
X163503688Y-95670984D01*
X163516022Y-95614401D01*
X163523632Y-95552202D01*
X163527261Y-95477363D01*
X163527755Y-95443467D01*
X163527690Y-95440282D01*
X162767752Y-95440282D01*
X162758459Y-95515333D01*
X162730272Y-95579160D01*
X162681803Y-95634798D01*
X162676746Y-95639211D01*
X162628452Y-95674037D01*
X162576743Y-95696620D01*
X162516011Y-95708540D01*
X162440648Y-95711383D01*
X162422541Y-95710978D01*
X162368722Y-95708325D01*
X162328692Y-95702909D01*
X162293676Y-95692745D01*
X162254897Y-95675850D01*
X162244255Y-95670672D01*
X162183604Y-95634844D01*
X162136785Y-95592212D01*
X162124048Y-95576973D01*
X162079378Y-95520462D01*
X162079378Y-95324586D01*
X162079914Y-95245939D01*
X162081604Y-95187988D01*
X162084572Y-95148875D01*
X162088943Y-95126741D01*
X162093028Y-95120274D01*
X162108953Y-95117111D01*
X162142736Y-95114488D01*
X162189660Y-95112655D01*
X162245007Y-95111857D01*
X162253894Y-95111842D01*
X162374670Y-95117096D01*
X162477340Y-95133263D01*
X162563894Y-95160961D01*
X162636319Y-95200808D01*
X162691249Y-95247758D01*
X162735796Y-95305645D01*
X162760520Y-95368693D01*
X162767752Y-95440282D01*
X163527690Y-95440282D01*
X163525822Y-95349712D01*
X163517478Y-95270812D01*
X163501232Y-95199590D01*
X163475595Y-95128864D01*
X163451599Y-95076493D01*
X163392980Y-94981196D01*
X163314883Y-94893170D01*
X163219685Y-94814017D01*
X163109762Y-94745340D01*
X162987490Y-94688741D01*
X162855245Y-94645821D01*
X162790578Y-94630882D01*
X162654396Y-94608777D01*
X162505951Y-94594194D01*
X162354495Y-94587813D01*
X162227936Y-94589445D01*
X162066050Y-94596224D01*
X162073470Y-94537245D01*
X162092762Y-94438092D01*
X162123896Y-94357372D01*
X162167731Y-94294466D01*
X162225129Y-94248756D01*
X162296952Y-94219622D01*
X162384059Y-94206447D01*
X162487314Y-94208611D01*
X162525289Y-94212612D01*
X162666480Y-94237780D01*
X162803293Y-94278814D01*
X162897822Y-94316815D01*
X162942982Y-94336190D01*
X162981415Y-94351760D01*
X163007766Y-94361405D01*
X163015454Y-94363452D01*
X163025198Y-94354374D01*
X163041917Y-94325405D01*
X163065768Y-94276217D01*
X163096907Y-94206484D01*
X163135493Y-94115879D01*
X163142090Y-94100089D01*
X163172147Y-94027772D01*
X163199126Y-93962425D01*
X163221864Y-93906906D01*
X163239194Y-93864072D01*
X163249952Y-93836781D01*
X163253059Y-93827942D01*
X163243060Y-93823187D01*
X163216783Y-93817910D01*
X163188511Y-93814231D01*
X163158354Y-93809474D01*
X163110567Y-93800028D01*
X163049388Y-93786820D01*
X162979054Y-93770776D01*
X162903806Y-93752820D01*
X162875245Y-93745797D01*
X162770184Y-93720209D01*
X162682520Y-93700147D01*
X162607932Y-93684969D01*
X162542097Y-93674035D01*
X162480693Y-93666704D01*
X162419398Y-93662335D01*
X162353890Y-93660287D01*
X162295872Y-93659889D01*
X162126426Y-93666552D01*
X162126426Y-93666552D01*
G37*
X162126426Y-93666552D02*
X161974508Y-93686567D01*
X161839244Y-93720202D01*
X161719761Y-93767725D01*
X161615185Y-93829405D01*
X161537576Y-93892965D01*
X161468735Y-93967099D01*
X161414994Y-94046871D01*
X161372090Y-94139091D01*
X161356616Y-94182161D01*
X161343756Y-94221142D01*
X161332554Y-94257289D01*
X161322880Y-94292434D01*
X161314604Y-94328410D01*
X161307597Y-94367050D01*
X161301728Y-94410185D01*
X161296869Y-94459649D01*
X161292890Y-94517273D01*
X161289660Y-94584891D01*
X161287051Y-94664334D01*
X161284933Y-94757436D01*
X161283176Y-94866027D01*
X161281651Y-94991942D01*
X161280228Y-95137012D01*
X161278975Y-95279778D01*
X161277649Y-95435968D01*
X161276444Y-95571239D01*
X161275234Y-95687246D01*
X161273894Y-95785645D01*
X161272300Y-95868093D01*
X161270325Y-95936246D01*
X161267844Y-95991760D01*
X161264731Y-96036292D01*
X161260862Y-96071498D01*
X161256111Y-96099034D01*
X161250352Y-96120556D01*
X161243461Y-96137722D01*
X161235311Y-96152186D01*
X161225777Y-96165606D01*
X161214734Y-96179638D01*
X161210434Y-96185071D01*
X161194614Y-96207910D01*
X161187578Y-96223463D01*
X161187556Y-96223922D01*
X161198433Y-96226121D01*
X161229418Y-96228147D01*
X161278043Y-96229942D01*
X161341837Y-96231451D01*
X161418331Y-96232616D01*
X161505056Y-96233380D01*
X161599543Y-96233686D01*
X161610450Y-96233689D01*
X162033343Y-96233689D01*
X162036605Y-96137622D01*
X162039867Y-96041556D01*
X162101956Y-96092543D01*
X162199286Y-96160057D01*
X162309187Y-96214749D01*
X162395651Y-96244978D01*
X162464722Y-96259666D01*
X162548075Y-96269659D01*
X162637841Y-96274646D01*
X162726155Y-96274313D01*
X162805149Y-96268351D01*
X162841378Y-96262638D01*
X162981397Y-96224776D01*
X163107822Y-96169932D01*
X163219740Y-96098924D01*
X163316238Y-96012568D01*
X163396400Y-95911679D01*
X163459313Y-95797076D01*
X163503688Y-95670984D01*
X163516022Y-95614401D01*
X163523632Y-95552202D01*
X163527261Y-95477363D01*
X163527755Y-95443467D01*
X163527690Y-95440282D01*
X162767752Y-95440282D01*
X162758459Y-95515333D01*
X162730272Y-95579160D01*
X162681803Y-95634798D01*
X162676746Y-95639211D01*
X162628452Y-95674037D01*
X162576743Y-95696620D01*
X162516011Y-95708540D01*
X162440648Y-95711383D01*
X162422541Y-95710978D01*
X162368722Y-95708325D01*
X162328692Y-95702909D01*
X162293676Y-95692745D01*
X162254897Y-95675850D01*
X162244255Y-95670672D01*
X162183604Y-95634844D01*
X162136785Y-95592212D01*
X162124048Y-95576973D01*
X162079378Y-95520462D01*
X162079378Y-95324586D01*
X162079914Y-95245939D01*
X162081604Y-95187988D01*
X162084572Y-95148875D01*
X162088943Y-95126741D01*
X162093028Y-95120274D01*
X162108953Y-95117111D01*
X162142736Y-95114488D01*
X162189660Y-95112655D01*
X162245007Y-95111857D01*
X162253894Y-95111842D01*
X162374670Y-95117096D01*
X162477340Y-95133263D01*
X162563894Y-95160961D01*
X162636319Y-95200808D01*
X162691249Y-95247758D01*
X162735796Y-95305645D01*
X162760520Y-95368693D01*
X162767752Y-95440282D01*
X163527690Y-95440282D01*
X163525822Y-95349712D01*
X163517478Y-95270812D01*
X163501232Y-95199590D01*
X163475595Y-95128864D01*
X163451599Y-95076493D01*
X163392980Y-94981196D01*
X163314883Y-94893170D01*
X163219685Y-94814017D01*
X163109762Y-94745340D01*
X162987490Y-94688741D01*
X162855245Y-94645821D01*
X162790578Y-94630882D01*
X162654396Y-94608777D01*
X162505951Y-94594194D01*
X162354495Y-94587813D01*
X162227936Y-94589445D01*
X162066050Y-94596224D01*
X162073470Y-94537245D01*
X162092762Y-94438092D01*
X162123896Y-94357372D01*
X162167731Y-94294466D01*
X162225129Y-94248756D01*
X162296952Y-94219622D01*
X162384059Y-94206447D01*
X162487314Y-94208611D01*
X162525289Y-94212612D01*
X162666480Y-94237780D01*
X162803293Y-94278814D01*
X162897822Y-94316815D01*
X162942982Y-94336190D01*
X162981415Y-94351760D01*
X163007766Y-94361405D01*
X163015454Y-94363452D01*
X163025198Y-94354374D01*
X163041917Y-94325405D01*
X163065768Y-94276217D01*
X163096907Y-94206484D01*
X163135493Y-94115879D01*
X163142090Y-94100089D01*
X163172147Y-94027772D01*
X163199126Y-93962425D01*
X163221864Y-93906906D01*
X163239194Y-93864072D01*
X163249952Y-93836781D01*
X163253059Y-93827942D01*
X163243060Y-93823187D01*
X163216783Y-93817910D01*
X163188511Y-93814231D01*
X163158354Y-93809474D01*
X163110567Y-93800028D01*
X163049388Y-93786820D01*
X162979054Y-93770776D01*
X162903806Y-93752820D01*
X162875245Y-93745797D01*
X162770184Y-93720209D01*
X162682520Y-93700147D01*
X162607932Y-93684969D01*
X162542097Y-93674035D01*
X162480693Y-93666704D01*
X162419398Y-93662335D01*
X162353890Y-93660287D01*
X162295872Y-93659889D01*
X162126426Y-93666552D01*
G36*
X158613493Y-94272245D02*
G01*
X158613474Y-94506662D01*
X158613448Y-94719603D01*
X158613375Y-94912168D01*
X158613218Y-95085459D01*
X158612936Y-95240576D01*
X158612491Y-95378620D01*
X158611844Y-95500692D01*
X158610955Y-95607894D01*
X158609787Y-95701326D01*
X158608299Y-95782090D01*
X158606454Y-95851286D01*
X158604211Y-95910015D01*
X158601531Y-95959379D01*
X158598377Y-96000478D01*
X158594708Y-96034413D01*
X158590487Y-96062286D01*
X158585673Y-96085198D01*
X158580227Y-96104249D01*
X158574112Y-96120540D01*
X158567288Y-96135173D01*
X158559715Y-96149249D01*
X158551355Y-96163868D01*
X158546161Y-96172974D01*
X158511896Y-96233689D01*
X159370045Y-96233689D01*
X159370045Y-96137733D01*
X159370776Y-96094370D01*
X159372728Y-96061205D01*
X159375537Y-96043424D01*
X159376779Y-96041778D01*
X159388201Y-96048662D01*
X159410916Y-96066505D01*
X159433615Y-96085879D01*
X159488200Y-96126614D01*
X159557679Y-96167617D01*
X159634730Y-96205123D01*
X159712035Y-96235364D01*
X159742887Y-96245012D01*
X159811384Y-96259578D01*
X159894236Y-96269539D01*
X159983629Y-96274583D01*
X160071752Y-96274396D01*
X160150793Y-96268666D01*
X160188489Y-96262858D01*
X160326586Y-96224797D01*
X160453887Y-96167073D01*
X160569708Y-96090211D01*
X160673363Y-95994739D01*
X160764167Y-95881179D01*
X160830969Y-95770381D01*
X160885836Y-95653625D01*
X160927837Y-95534276D01*
X160957833Y-95408283D01*
X160976689Y-95271594D01*
X160985268Y-95120158D01*
X160985994Y-95042711D01*
X160983900Y-94985934D01*
X160154783Y-94985934D01*
X160154576Y-95079002D01*
X160151663Y-95166692D01*
X160146000Y-95243772D01*
X160137545Y-95305009D01*
X160134962Y-95317350D01*
X160103160Y-95424633D01*
X160061502Y-95511658D01*
X160009637Y-95578642D01*
X159947219Y-95625805D01*
X159873900Y-95653365D01*
X159789331Y-95661541D01*
X159693165Y-95650551D01*
X159629689Y-95634829D01*
X159580546Y-95616639D01*
X159526417Y-95590791D01*
X159485756Y-95567089D01*
X159415200Y-95520721D01*
X159415200Y-94370530D01*
X159482608Y-94326962D01*
X159561133Y-94286040D01*
X159645319Y-94259389D01*
X159730443Y-94247465D01*
X159811784Y-94250722D01*
X159884620Y-94269615D01*
X159916574Y-94285184D01*
X159974499Y-94328181D01*
X160023456Y-94384953D01*
X160064610Y-94457575D01*
X160099126Y-94548121D01*
X160128167Y-94658666D01*
X160129448Y-94664533D01*
X160139619Y-94726788D01*
X160147261Y-94804594D01*
X160152330Y-94892720D01*
X160154783Y-94985934D01*
X160983900Y-94985934D01*
X160978143Y-94829895D01*
X160956198Y-94634059D01*
X160920214Y-94455332D01*
X160870241Y-94293845D01*
X160806332Y-94149726D01*
X160728538Y-94023106D01*
X160636911Y-93914115D01*
X160531503Y-93822883D01*
X160486338Y-93791932D01*
X160385389Y-93735785D01*
X160282099Y-93696174D01*
X160172011Y-93672014D01*
X160050670Y-93662219D01*
X159958164Y-93663265D01*
X159828510Y-93674231D01*
X159715916Y-93696046D01*
X159617125Y-93729714D01*
X159528879Y-93776236D01*
X159480014Y-93810448D01*
X159450647Y-93832362D01*
X159428957Y-93847333D01*
X159420747Y-93851733D01*
X159419132Y-93840904D01*
X159417841Y-93810251D01*
X159416862Y-93762526D01*
X159416183Y-93700479D01*
X159415790Y-93626862D01*
X159415670Y-93544427D01*
X159415812Y-93455925D01*
X159416203Y-93364107D01*
X159416829Y-93271724D01*
X159417680Y-93181528D01*
X159418740Y-93096271D01*
X159419999Y-93018703D01*
X159421444Y-92951576D01*
X159423062Y-92897641D01*
X159424839Y-92859650D01*
X159425331Y-92852667D01*
X159432908Y-92782251D01*
X159444469Y-92727102D01*
X159462208Y-92679981D01*
X159488318Y-92633647D01*
X159494585Y-92624067D01*
X159519017Y-92587378D01*
X158613689Y-92587378D01*
X158613493Y-94272245D01*
X158613493Y-94272245D01*
G37*
X158613493Y-94272245D02*
X158613474Y-94506662D01*
X158613448Y-94719603D01*
X158613375Y-94912168D01*
X158613218Y-95085459D01*
X158612936Y-95240576D01*
X158612491Y-95378620D01*
X158611844Y-95500692D01*
X158610955Y-95607894D01*
X158609787Y-95701326D01*
X158608299Y-95782090D01*
X158606454Y-95851286D01*
X158604211Y-95910015D01*
X158601531Y-95959379D01*
X158598377Y-96000478D01*
X158594708Y-96034413D01*
X158590487Y-96062286D01*
X158585673Y-96085198D01*
X158580227Y-96104249D01*
X158574112Y-96120540D01*
X158567288Y-96135173D01*
X158559715Y-96149249D01*
X158551355Y-96163868D01*
X158546161Y-96172974D01*
X158511896Y-96233689D01*
X159370045Y-96233689D01*
X159370045Y-96137733D01*
X159370776Y-96094370D01*
X159372728Y-96061205D01*
X159375537Y-96043424D01*
X159376779Y-96041778D01*
X159388201Y-96048662D01*
X159410916Y-96066505D01*
X159433615Y-96085879D01*
X159488200Y-96126614D01*
X159557679Y-96167617D01*
X159634730Y-96205123D01*
X159712035Y-96235364D01*
X159742887Y-96245012D01*
X159811384Y-96259578D01*
X159894236Y-96269539D01*
X159983629Y-96274583D01*
X160071752Y-96274396D01*
X160150793Y-96268666D01*
X160188489Y-96262858D01*
X160326586Y-96224797D01*
X160453887Y-96167073D01*
X160569708Y-96090211D01*
X160673363Y-95994739D01*
X160764167Y-95881179D01*
X160830969Y-95770381D01*
X160885836Y-95653625D01*
X160927837Y-95534276D01*
X160957833Y-95408283D01*
X160976689Y-95271594D01*
X160985268Y-95120158D01*
X160985994Y-95042711D01*
X160983900Y-94985934D01*
X160154783Y-94985934D01*
X160154576Y-95079002D01*
X160151663Y-95166692D01*
X160146000Y-95243772D01*
X160137545Y-95305009D01*
X160134962Y-95317350D01*
X160103160Y-95424633D01*
X160061502Y-95511658D01*
X160009637Y-95578642D01*
X159947219Y-95625805D01*
X159873900Y-95653365D01*
X159789331Y-95661541D01*
X159693165Y-95650551D01*
X159629689Y-95634829D01*
X159580546Y-95616639D01*
X159526417Y-95590791D01*
X159485756Y-95567089D01*
X159415200Y-95520721D01*
X159415200Y-94370530D01*
X159482608Y-94326962D01*
X159561133Y-94286040D01*
X159645319Y-94259389D01*
X159730443Y-94247465D01*
X159811784Y-94250722D01*
X159884620Y-94269615D01*
X159916574Y-94285184D01*
X159974499Y-94328181D01*
X160023456Y-94384953D01*
X160064610Y-94457575D01*
X160099126Y-94548121D01*
X160128167Y-94658666D01*
X160129448Y-94664533D01*
X160139619Y-94726788D01*
X160147261Y-94804594D01*
X160152330Y-94892720D01*
X160154783Y-94985934D01*
X160983900Y-94985934D01*
X160978143Y-94829895D01*
X160956198Y-94634059D01*
X160920214Y-94455332D01*
X160870241Y-94293845D01*
X160806332Y-94149726D01*
X160728538Y-94023106D01*
X160636911Y-93914115D01*
X160531503Y-93822883D01*
X160486338Y-93791932D01*
X160385389Y-93735785D01*
X160282099Y-93696174D01*
X160172011Y-93672014D01*
X160050670Y-93662219D01*
X159958164Y-93663265D01*
X159828510Y-93674231D01*
X159715916Y-93696046D01*
X159617125Y-93729714D01*
X159528879Y-93776236D01*
X159480014Y-93810448D01*
X159450647Y-93832362D01*
X159428957Y-93847333D01*
X159420747Y-93851733D01*
X159419132Y-93840904D01*
X159417841Y-93810251D01*
X159416862Y-93762526D01*
X159416183Y-93700479D01*
X159415790Y-93626862D01*
X159415670Y-93544427D01*
X159415812Y-93455925D01*
X159416203Y-93364107D01*
X159416829Y-93271724D01*
X159417680Y-93181528D01*
X159418740Y-93096271D01*
X159419999Y-93018703D01*
X159421444Y-92951576D01*
X159423062Y-92897641D01*
X159424839Y-92859650D01*
X159425331Y-92852667D01*
X159432908Y-92782251D01*
X159444469Y-92727102D01*
X159462208Y-92679981D01*
X159488318Y-92633647D01*
X159494585Y-92624067D01*
X159519017Y-92587378D01*
X158613689Y-92587378D01*
X158613493Y-94272245D01*
G36*
X167073043Y-91826571D02*
G01*
X166976768Y-91850809D01*
X166890184Y-91893641D01*
X166815373Y-91953419D01*
X166754418Y-92028494D01*
X166709399Y-92117220D01*
X166683136Y-92213530D01*
X166677286Y-92310795D01*
X166692140Y-92404654D01*
X166725840Y-92492511D01*
X166776528Y-92571770D01*
X166842345Y-92639836D01*
X166921434Y-92694112D01*
X167011934Y-92732002D01*
X167063200Y-92744426D01*
X167107698Y-92751947D01*
X167141999Y-92754919D01*
X167174960Y-92753094D01*
X167215434Y-92746225D01*
X167248531Y-92739250D01*
X167341947Y-92707741D01*
X167425619Y-92656617D01*
X167497665Y-92587429D01*
X167556200Y-92501728D01*
X167570148Y-92474489D01*
X167586586Y-92438122D01*
X167596894Y-92407582D01*
X167602460Y-92375450D01*
X167604669Y-92334307D01*
X167604948Y-92288222D01*
X167600861Y-92203865D01*
X167587446Y-92134586D01*
X167562256Y-92073961D01*
X167522846Y-92015567D01*
X167484298Y-91971302D01*
X167412406Y-91905484D01*
X167337313Y-91860053D01*
X167254562Y-91832850D01*
X167176928Y-91822576D01*
X167073043Y-91826571D01*
X167073043Y-91826571D01*
G37*
X167073043Y-91826571D02*
X166976768Y-91850809D01*
X166890184Y-91893641D01*
X166815373Y-91953419D01*
X166754418Y-92028494D01*
X166709399Y-92117220D01*
X166683136Y-92213530D01*
X166677286Y-92310795D01*
X166692140Y-92404654D01*
X166725840Y-92492511D01*
X166776528Y-92571770D01*
X166842345Y-92639836D01*
X166921434Y-92694112D01*
X167011934Y-92732002D01*
X167063200Y-92744426D01*
X167107698Y-92751947D01*
X167141999Y-92754919D01*
X167174960Y-92753094D01*
X167215434Y-92746225D01*
X167248531Y-92739250D01*
X167341947Y-92707741D01*
X167425619Y-92656617D01*
X167497665Y-92587429D01*
X167556200Y-92501728D01*
X167570148Y-92474489D01*
X167586586Y-92438122D01*
X167596894Y-92407582D01*
X167602460Y-92375450D01*
X167604669Y-92334307D01*
X167604948Y-92288222D01*
X167600861Y-92203865D01*
X167587446Y-92134586D01*
X167562256Y-92073961D01*
X167522846Y-92015567D01*
X167484298Y-91971302D01*
X167412406Y-91905484D01*
X167337313Y-91860053D01*
X167254562Y-91832850D01*
X167176928Y-91822576D01*
X167073043Y-91826571D01*
G36*
X170921371Y-97069066D02*
G01*
X170881889Y-97069467D01*
X170766200Y-97072259D01*
X170669311Y-97080550D01*
X170587919Y-97095232D01*
X170518723Y-97117193D01*
X170458420Y-97147322D01*
X170403708Y-97186510D01*
X170384167Y-97203532D01*
X170351750Y-97243363D01*
X170322520Y-97297413D01*
X170299991Y-97357323D01*
X170287679Y-97414739D01*
X170286400Y-97435956D01*
X170294417Y-97494769D01*
X170315899Y-97559013D01*
X170346999Y-97619821D01*
X170383866Y-97668330D01*
X170389854Y-97674182D01*
X170440579Y-97715321D01*
X170496125Y-97747435D01*
X170559696Y-97771365D01*
X170634494Y-97787953D01*
X170723722Y-97798041D01*
X170830582Y-97802469D01*
X170879528Y-97802845D01*
X170941762Y-97802545D01*
X170985528Y-97801292D01*
X171014931Y-97798554D01*
X171034079Y-97793801D01*
X171047077Y-97786501D01*
X171054045Y-97780267D01*
X171060626Y-97772694D01*
X171065788Y-97762924D01*
X171069703Y-97748340D01*
X171072543Y-97726326D01*
X171074480Y-97694264D01*
X171075684Y-97649536D01*
X171076328Y-97589526D01*
X171076583Y-97511617D01*
X171076622Y-97435956D01*
X171076870Y-97335041D01*
X171076817Y-97254427D01*
X171075857Y-97215822D01*
X170929867Y-97215822D01*
X170929867Y-97656089D01*
X170836734Y-97656004D01*
X170780693Y-97654396D01*
X170721999Y-97650256D01*
X170673028Y-97644464D01*
X170671538Y-97644226D01*
X170592392Y-97625090D01*
X170531002Y-97595287D01*
X170484305Y-97552878D01*
X170454635Y-97506961D01*
X170436353Y-97456026D01*
X170437771Y-97408200D01*
X170458988Y-97356933D01*
X170500489Y-97303899D01*
X170557998Y-97264600D01*
X170632750Y-97238331D01*
X170682708Y-97229035D01*
X170739416Y-97222507D01*
X170799519Y-97217782D01*
X170850639Y-97215817D01*
X170853667Y-97215808D01*
X170929867Y-97215822D01*
X171075857Y-97215822D01*
X171075260Y-97191851D01*
X171070998Y-97145055D01*
X171062830Y-97111778D01*
X171049556Y-97089759D01*
X171029974Y-97076739D01*
X171002883Y-97070457D01*
X170967082Y-97068653D01*
X170921371Y-97069066D01*
X170921371Y-97069066D01*
G37*
X170921371Y-97069066D02*
X170881889Y-97069467D01*
X170766200Y-97072259D01*
X170669311Y-97080550D01*
X170587919Y-97095232D01*
X170518723Y-97117193D01*
X170458420Y-97147322D01*
X170403708Y-97186510D01*
X170384167Y-97203532D01*
X170351750Y-97243363D01*
X170322520Y-97297413D01*
X170299991Y-97357323D01*
X170287679Y-97414739D01*
X170286400Y-97435956D01*
X170294417Y-97494769D01*
X170315899Y-97559013D01*
X170346999Y-97619821D01*
X170383866Y-97668330D01*
X170389854Y-97674182D01*
X170440579Y-97715321D01*
X170496125Y-97747435D01*
X170559696Y-97771365D01*
X170634494Y-97787953D01*
X170723722Y-97798041D01*
X170830582Y-97802469D01*
X170879528Y-97802845D01*
X170941762Y-97802545D01*
X170985528Y-97801292D01*
X171014931Y-97798554D01*
X171034079Y-97793801D01*
X171047077Y-97786501D01*
X171054045Y-97780267D01*
X171060626Y-97772694D01*
X171065788Y-97762924D01*
X171069703Y-97748340D01*
X171072543Y-97726326D01*
X171074480Y-97694264D01*
X171075684Y-97649536D01*
X171076328Y-97589526D01*
X171076583Y-97511617D01*
X171076622Y-97435956D01*
X171076870Y-97335041D01*
X171076817Y-97254427D01*
X171075857Y-97215822D01*
X170929867Y-97215822D01*
X170929867Y-97656089D01*
X170836734Y-97656004D01*
X170780693Y-97654396D01*
X170721999Y-97650256D01*
X170673028Y-97644464D01*
X170671538Y-97644226D01*
X170592392Y-97625090D01*
X170531002Y-97595287D01*
X170484305Y-97552878D01*
X170454635Y-97506961D01*
X170436353Y-97456026D01*
X170437771Y-97408200D01*
X170458988Y-97356933D01*
X170500489Y-97303899D01*
X170557998Y-97264600D01*
X170632750Y-97238331D01*
X170682708Y-97229035D01*
X170739416Y-97222507D01*
X170799519Y-97217782D01*
X170850639Y-97215817D01*
X170853667Y-97215808D01*
X170929867Y-97215822D01*
X171075857Y-97215822D01*
X171075260Y-97191851D01*
X171070998Y-97145055D01*
X171062830Y-97111778D01*
X171049556Y-97089759D01*
X171029974Y-97076739D01*
X171002883Y-97070457D01*
X170967082Y-97068653D01*
X170921371Y-97069066D01*
G36*
X169512794Y-97069146D02*
G01*
X169443386Y-97069518D01*
X169390997Y-97070385D01*
X169352847Y-97071946D01*
X169326159Y-97074403D01*
X169308153Y-97077957D01*
X169296049Y-97082810D01*
X169287069Y-97089161D01*
X169283818Y-97092084D01*
X169264043Y-97123142D01*
X169260482Y-97158828D01*
X169273491Y-97190510D01*
X169279506Y-97196913D01*
X169289235Y-97203121D01*
X169304901Y-97207910D01*
X169329408Y-97211514D01*
X169365661Y-97214164D01*
X169416565Y-97216095D01*
X169485026Y-97217539D01*
X169547617Y-97218418D01*
X169795334Y-97221467D01*
X169798719Y-97286378D01*
X169802105Y-97351289D01*
X169633958Y-97351289D01*
X169560959Y-97351919D01*
X169507517Y-97354553D01*
X169470628Y-97360309D01*
X169447288Y-97370304D01*
X169434494Y-97385656D01*
X169429242Y-97407482D01*
X169428445Y-97427738D01*
X169430923Y-97452592D01*
X169440277Y-97470906D01*
X169459383Y-97483637D01*
X169491118Y-97491741D01*
X169538359Y-97496176D01*
X169603983Y-97497899D01*
X169639801Y-97498045D01*
X169800978Y-97498045D01*
X169800978Y-97656089D01*
X169552622Y-97656089D01*
X169471213Y-97656202D01*
X169409342Y-97656712D01*
X169363968Y-97657870D01*
X169332054Y-97659930D01*
X169310559Y-97663146D01*
X169296443Y-97667772D01*
X169286668Y-97674059D01*
X169281689Y-97678667D01*
X169264610Y-97705560D01*
X169259111Y-97729467D01*
X169266963Y-97758667D01*
X169281689Y-97780267D01*
X169289546Y-97787066D01*
X169299688Y-97792346D01*
X169314844Y-97796298D01*
X169337741Y-97799113D01*
X169371109Y-97800982D01*
X169417675Y-97802098D01*
X169480167Y-97802651D01*
X169561314Y-97802833D01*
X169603422Y-97802845D01*
X169693598Y-97802765D01*
X169763924Y-97802398D01*
X169817129Y-97801552D01*
X169855940Y-97800036D01*
X169883087Y-97797659D01*
X169901298Y-97794229D01*
X169913300Y-97789554D01*
X169921822Y-97783444D01*
X169925156Y-97780267D01*
X169931755Y-97772670D01*
X169936927Y-97762870D01*
X169940846Y-97748239D01*
X169943684Y-97726152D01*
X169945615Y-97693982D01*
X169946812Y-97649103D01*
X169947448Y-97588889D01*
X169947697Y-97510713D01*
X169947734Y-97437923D01*
X169947700Y-97344707D01*
X169947465Y-97271431D01*
X169946830Y-97215458D01*
X169945594Y-97174151D01*
X169943556Y-97144872D01*
X169940517Y-97124984D01*
X169936277Y-97111850D01*
X169930635Y-97102832D01*
X169923391Y-97095293D01*
X169921606Y-97093612D01*
X169912945Y-97086172D01*
X169902882Y-97080409D01*
X169888625Y-97076112D01*
X169867383Y-97073064D01*
X169836364Y-97071051D01*
X169792777Y-97069860D01*
X169733831Y-97069275D01*
X169656734Y-97069083D01*
X169602001Y-97069067D01*
X169512794Y-97069146D01*
X169512794Y-97069146D01*
G37*
X169512794Y-97069146D02*
X169443386Y-97069518D01*
X169390997Y-97070385D01*
X169352847Y-97071946D01*
X169326159Y-97074403D01*
X169308153Y-97077957D01*
X169296049Y-97082810D01*
X169287069Y-97089161D01*
X169283818Y-97092084D01*
X169264043Y-97123142D01*
X169260482Y-97158828D01*
X169273491Y-97190510D01*
X169279506Y-97196913D01*
X169289235Y-97203121D01*
X169304901Y-97207910D01*
X169329408Y-97211514D01*
X169365661Y-97214164D01*
X169416565Y-97216095D01*
X169485026Y-97217539D01*
X169547617Y-97218418D01*
X169795334Y-97221467D01*
X169798719Y-97286378D01*
X169802105Y-97351289D01*
X169633958Y-97351289D01*
X169560959Y-97351919D01*
X169507517Y-97354553D01*
X169470628Y-97360309D01*
X169447288Y-97370304D01*
X169434494Y-97385656D01*
X169429242Y-97407482D01*
X169428445Y-97427738D01*
X169430923Y-97452592D01*
X169440277Y-97470906D01*
X169459383Y-97483637D01*
X169491118Y-97491741D01*
X169538359Y-97496176D01*
X169603983Y-97497899D01*
X169639801Y-97498045D01*
X169800978Y-97498045D01*
X169800978Y-97656089D01*
X169552622Y-97656089D01*
X169471213Y-97656202D01*
X169409342Y-97656712D01*
X169363968Y-97657870D01*
X169332054Y-97659930D01*
X169310559Y-97663146D01*
X169296443Y-97667772D01*
X169286668Y-97674059D01*
X169281689Y-97678667D01*
X169264610Y-97705560D01*
X169259111Y-97729467D01*
X169266963Y-97758667D01*
X169281689Y-97780267D01*
X169289546Y-97787066D01*
X169299688Y-97792346D01*
X169314844Y-97796298D01*
X169337741Y-97799113D01*
X169371109Y-97800982D01*
X169417675Y-97802098D01*
X169480167Y-97802651D01*
X169561314Y-97802833D01*
X169603422Y-97802845D01*
X169693598Y-97802765D01*
X169763924Y-97802398D01*
X169817129Y-97801552D01*
X169855940Y-97800036D01*
X169883087Y-97797659D01*
X169901298Y-97794229D01*
X169913300Y-97789554D01*
X169921822Y-97783444D01*
X169925156Y-97780267D01*
X169931755Y-97772670D01*
X169936927Y-97762870D01*
X169940846Y-97748239D01*
X169943684Y-97726152D01*
X169945615Y-97693982D01*
X169946812Y-97649103D01*
X169947448Y-97588889D01*
X169947697Y-97510713D01*
X169947734Y-97437923D01*
X169947700Y-97344707D01*
X169947465Y-97271431D01*
X169946830Y-97215458D01*
X169945594Y-97174151D01*
X169943556Y-97144872D01*
X169940517Y-97124984D01*
X169936277Y-97111850D01*
X169930635Y-97102832D01*
X169923391Y-97095293D01*
X169921606Y-97093612D01*
X169912945Y-97086172D01*
X169902882Y-97080409D01*
X169888625Y-97076112D01*
X169867383Y-97073064D01*
X169836364Y-97071051D01*
X169792777Y-97069860D01*
X169733831Y-97069275D01*
X169656734Y-97069083D01*
X169602001Y-97069067D01*
X169512794Y-97069146D01*
G36*
X168491703Y-97070351D02*
G01*
X168416888Y-97075581D01*
X168347306Y-97083750D01*
X168287002Y-97094550D01*
X168240020Y-97107673D01*
X168210406Y-97122813D01*
X168205860Y-97127269D01*
X168190054Y-97161850D01*
X168194847Y-97197351D01*
X168219364Y-97227725D01*
X168220534Y-97228596D01*
X168234954Y-97237954D01*
X168250008Y-97242876D01*
X168271005Y-97243473D01*
X168303257Y-97239861D01*
X168352073Y-97232154D01*
X168356000Y-97231505D01*
X168428739Y-97222569D01*
X168507217Y-97218161D01*
X168585927Y-97218119D01*
X168659361Y-97222279D01*
X168722011Y-97230479D01*
X168768370Y-97242557D01*
X168771416Y-97243771D01*
X168805048Y-97262615D01*
X168816864Y-97281685D01*
X168807614Y-97300439D01*
X168778047Y-97318337D01*
X168728911Y-97334837D01*
X168660957Y-97349396D01*
X168615645Y-97356406D01*
X168521456Y-97369889D01*
X168446544Y-97382214D01*
X168387717Y-97394449D01*
X168341785Y-97407661D01*
X168305555Y-97422917D01*
X168275838Y-97441285D01*
X168249442Y-97463831D01*
X168228230Y-97485971D01*
X168203065Y-97516819D01*
X168190681Y-97543345D01*
X168186808Y-97576026D01*
X168186667Y-97587995D01*
X168189576Y-97627712D01*
X168201202Y-97657259D01*
X168221323Y-97683486D01*
X168262216Y-97723576D01*
X168307817Y-97754149D01*
X168361513Y-97776203D01*
X168426692Y-97790735D01*
X168506744Y-97798741D01*
X168605057Y-97801218D01*
X168621289Y-97801177D01*
X168686849Y-97799818D01*
X168751866Y-97796730D01*
X168809252Y-97792356D01*
X168851922Y-97787140D01*
X168855372Y-97786541D01*
X168897796Y-97776491D01*
X168933780Y-97763796D01*
X168954150Y-97752190D01*
X168973107Y-97721572D01*
X168974427Y-97685918D01*
X168958085Y-97654144D01*
X168954429Y-97650551D01*
X168939315Y-97639876D01*
X168920415Y-97635276D01*
X168891162Y-97636059D01*
X168855651Y-97640127D01*
X168815970Y-97643762D01*
X168760345Y-97646828D01*
X168695406Y-97649053D01*
X168627785Y-97650164D01*
X168610000Y-97650237D01*
X168542128Y-97649964D01*
X168492454Y-97648646D01*
X168456610Y-97645827D01*
X168430224Y-97641050D01*
X168408926Y-97633857D01*
X168396126Y-97627867D01*
X168368000Y-97611233D01*
X168350068Y-97596168D01*
X168347447Y-97591897D01*
X168352976Y-97574263D01*
X168379260Y-97557192D01*
X168424478Y-97541458D01*
X168486808Y-97527838D01*
X168505171Y-97524804D01*
X168601090Y-97509738D01*
X168677641Y-97497146D01*
X168737780Y-97486111D01*
X168784460Y-97475720D01*
X168820637Y-97465056D01*
X168849265Y-97453205D01*
X168873298Y-97439251D01*
X168895692Y-97422281D01*
X168919402Y-97401378D01*
X168927380Y-97394049D01*
X168955353Y-97366699D01*
X168970160Y-97345029D01*
X168975952Y-97320232D01*
X168976889Y-97288983D01*
X168966575Y-97227705D01*
X168935752Y-97175640D01*
X168884595Y-97132958D01*
X168813283Y-97099825D01*
X168762400Y-97084964D01*
X168707100Y-97075366D01*
X168640853Y-97069936D01*
X168567706Y-97068367D01*
X168491703Y-97070351D01*
X168491703Y-97070351D01*
G37*
X168491703Y-97070351D02*
X168416888Y-97075581D01*
X168347306Y-97083750D01*
X168287002Y-97094550D01*
X168240020Y-97107673D01*
X168210406Y-97122813D01*
X168205860Y-97127269D01*
X168190054Y-97161850D01*
X168194847Y-97197351D01*
X168219364Y-97227725D01*
X168220534Y-97228596D01*
X168234954Y-97237954D01*
X168250008Y-97242876D01*
X168271005Y-97243473D01*
X168303257Y-97239861D01*
X168352073Y-97232154D01*
X168356000Y-97231505D01*
X168428739Y-97222569D01*
X168507217Y-97218161D01*
X168585927Y-97218119D01*
X168659361Y-97222279D01*
X168722011Y-97230479D01*
X168768370Y-97242557D01*
X168771416Y-97243771D01*
X168805048Y-97262615D01*
X168816864Y-97281685D01*
X168807614Y-97300439D01*
X168778047Y-97318337D01*
X168728911Y-97334837D01*
X168660957Y-97349396D01*
X168615645Y-97356406D01*
X168521456Y-97369889D01*
X168446544Y-97382214D01*
X168387717Y-97394449D01*
X168341785Y-97407661D01*
X168305555Y-97422917D01*
X168275838Y-97441285D01*
X168249442Y-97463831D01*
X168228230Y-97485971D01*
X168203065Y-97516819D01*
X168190681Y-97543345D01*
X168186808Y-97576026D01*
X168186667Y-97587995D01*
X168189576Y-97627712D01*
X168201202Y-97657259D01*
X168221323Y-97683486D01*
X168262216Y-97723576D01*
X168307817Y-97754149D01*
X168361513Y-97776203D01*
X168426692Y-97790735D01*
X168506744Y-97798741D01*
X168605057Y-97801218D01*
X168621289Y-97801177D01*
X168686849Y-97799818D01*
X168751866Y-97796730D01*
X168809252Y-97792356D01*
X168851922Y-97787140D01*
X168855372Y-97786541D01*
X168897796Y-97776491D01*
X168933780Y-97763796D01*
X168954150Y-97752190D01*
X168973107Y-97721572D01*
X168974427Y-97685918D01*
X168958085Y-97654144D01*
X168954429Y-97650551D01*
X168939315Y-97639876D01*
X168920415Y-97635276D01*
X168891162Y-97636059D01*
X168855651Y-97640127D01*
X168815970Y-97643762D01*
X168760345Y-97646828D01*
X168695406Y-97649053D01*
X168627785Y-97650164D01*
X168610000Y-97650237D01*
X168542128Y-97649964D01*
X168492454Y-97648646D01*
X168456610Y-97645827D01*
X168430224Y-97641050D01*
X168408926Y-97633857D01*
X168396126Y-97627867D01*
X168368000Y-97611233D01*
X168350068Y-97596168D01*
X168347447Y-97591897D01*
X168352976Y-97574263D01*
X168379260Y-97557192D01*
X168424478Y-97541458D01*
X168486808Y-97527838D01*
X168505171Y-97524804D01*
X168601090Y-97509738D01*
X168677641Y-97497146D01*
X168737780Y-97486111D01*
X168784460Y-97475720D01*
X168820637Y-97465056D01*
X168849265Y-97453205D01*
X168873298Y-97439251D01*
X168895692Y-97422281D01*
X168919402Y-97401378D01*
X168927380Y-97394049D01*
X168955353Y-97366699D01*
X168970160Y-97345029D01*
X168975952Y-97320232D01*
X168976889Y-97288983D01*
X168966575Y-97227705D01*
X168935752Y-97175640D01*
X168884595Y-97132958D01*
X168813283Y-97099825D01*
X168762400Y-97084964D01*
X168707100Y-97075366D01*
X168640853Y-97069936D01*
X168567706Y-97068367D01*
X168491703Y-97070351D01*
G36*
X167723822Y-97091645D02*
G01*
X167717242Y-97099218D01*
X167712079Y-97108987D01*
X167708164Y-97123571D01*
X167705324Y-97145585D01*
X167703387Y-97177648D01*
X167702183Y-97222375D01*
X167701539Y-97282385D01*
X167701284Y-97360294D01*
X167701245Y-97435956D01*
X167701314Y-97529802D01*
X167701638Y-97603689D01*
X167702386Y-97660232D01*
X167703732Y-97702049D01*
X167705846Y-97731757D01*
X167708900Y-97751973D01*
X167713066Y-97765314D01*
X167718516Y-97774398D01*
X167723822Y-97780267D01*
X167756826Y-97799947D01*
X167791991Y-97798181D01*
X167823455Y-97776717D01*
X167830684Y-97768337D01*
X167836334Y-97758614D01*
X167840599Y-97744861D01*
X167843673Y-97724389D01*
X167845752Y-97694512D01*
X167847030Y-97652541D01*
X167847701Y-97595789D01*
X167847959Y-97521567D01*
X167848000Y-97437537D01*
X167848000Y-97124485D01*
X167820291Y-97096776D01*
X167786137Y-97073463D01*
X167753006Y-97072623D01*
X167723822Y-97091645D01*
X167723822Y-97091645D01*
G37*
X167723822Y-97091645D02*
X167717242Y-97099218D01*
X167712079Y-97108987D01*
X167708164Y-97123571D01*
X167705324Y-97145585D01*
X167703387Y-97177648D01*
X167702183Y-97222375D01*
X167701539Y-97282385D01*
X167701284Y-97360294D01*
X167701245Y-97435956D01*
X167701314Y-97529802D01*
X167701638Y-97603689D01*
X167702386Y-97660232D01*
X167703732Y-97702049D01*
X167705846Y-97731757D01*
X167708900Y-97751973D01*
X167713066Y-97765314D01*
X167718516Y-97774398D01*
X167723822Y-97780267D01*
X167756826Y-97799947D01*
X167791991Y-97798181D01*
X167823455Y-97776717D01*
X167830684Y-97768337D01*
X167836334Y-97758614D01*
X167840599Y-97744861D01*
X167843673Y-97724389D01*
X167845752Y-97694512D01*
X167847030Y-97652541D01*
X167847701Y-97595789D01*
X167847959Y-97521567D01*
X167848000Y-97437537D01*
X167848000Y-97124485D01*
X167820291Y-97096776D01*
X167786137Y-97073463D01*
X167753006Y-97072623D01*
X167723822Y-97091645D01*
G36*
X166750081Y-97074599D02*
G01*
X166681565Y-97086095D01*
X166628943Y-97103967D01*
X166594708Y-97127499D01*
X166585379Y-97140924D01*
X166575893Y-97172148D01*
X166582277Y-97200395D01*
X166602430Y-97227182D01*
X166633745Y-97239713D01*
X166679183Y-97238696D01*
X166714326Y-97231906D01*
X166792419Y-97218971D01*
X166872226Y-97217742D01*
X166961555Y-97228241D01*
X166986229Y-97232690D01*
X167069291Y-97256108D01*
X167134273Y-97290945D01*
X167180461Y-97336604D01*
X167207145Y-97392494D01*
X167212663Y-97421388D01*
X167209051Y-97480012D01*
X167185729Y-97531879D01*
X167144824Y-97575978D01*
X167088459Y-97611299D01*
X167018760Y-97636829D01*
X166937852Y-97651559D01*
X166847860Y-97654478D01*
X166750910Y-97644575D01*
X166745436Y-97643641D01*
X166706875Y-97636459D01*
X166685494Y-97629521D01*
X166676227Y-97619227D01*
X166674006Y-97601976D01*
X166673956Y-97592841D01*
X166673956Y-97554489D01*
X166742431Y-97554489D01*
X166802900Y-97550347D01*
X166844165Y-97537147D01*
X166868175Y-97513730D01*
X166876877Y-97478936D01*
X166876983Y-97474394D01*
X166871892Y-97444654D01*
X166854433Y-97423419D01*
X166821939Y-97409366D01*
X166771743Y-97401173D01*
X166723123Y-97398161D01*
X166652456Y-97396433D01*
X166601198Y-97399070D01*
X166566239Y-97408800D01*
X166544470Y-97428353D01*
X166532780Y-97460456D01*
X166528060Y-97507838D01*
X166527200Y-97570071D01*
X166528609Y-97639535D01*
X166532848Y-97686786D01*
X166539936Y-97712012D01*
X166541311Y-97713988D01*
X166580228Y-97745508D01*
X166637286Y-97770470D01*
X166708869Y-97788340D01*
X166791358Y-97798586D01*
X166881139Y-97800673D01*
X166974592Y-97794068D01*
X167029556Y-97785956D01*
X167115766Y-97761554D01*
X167195892Y-97721662D01*
X167262977Y-97669887D01*
X167273173Y-97659539D01*
X167306302Y-97616035D01*
X167336194Y-97562118D01*
X167359357Y-97505592D01*
X167372298Y-97454259D01*
X167373858Y-97434544D01*
X167367218Y-97393419D01*
X167349568Y-97342252D01*
X167324297Y-97288394D01*
X167294789Y-97239195D01*
X167268719Y-97206334D01*
X167207765Y-97157452D01*
X167128969Y-97118545D01*
X167035157Y-97090494D01*
X166929150Y-97074179D01*
X166832000Y-97070192D01*
X166750081Y-97074599D01*
X166750081Y-97074599D01*
G37*
X166750081Y-97074599D02*
X166681565Y-97086095D01*
X166628943Y-97103967D01*
X166594708Y-97127499D01*
X166585379Y-97140924D01*
X166575893Y-97172148D01*
X166582277Y-97200395D01*
X166602430Y-97227182D01*
X166633745Y-97239713D01*
X166679183Y-97238696D01*
X166714326Y-97231906D01*
X166792419Y-97218971D01*
X166872226Y-97217742D01*
X166961555Y-97228241D01*
X166986229Y-97232690D01*
X167069291Y-97256108D01*
X167134273Y-97290945D01*
X167180461Y-97336604D01*
X167207145Y-97392494D01*
X167212663Y-97421388D01*
X167209051Y-97480012D01*
X167185729Y-97531879D01*
X167144824Y-97575978D01*
X167088459Y-97611299D01*
X167018760Y-97636829D01*
X166937852Y-97651559D01*
X166847860Y-97654478D01*
X166750910Y-97644575D01*
X166745436Y-97643641D01*
X166706875Y-97636459D01*
X166685494Y-97629521D01*
X166676227Y-97619227D01*
X166674006Y-97601976D01*
X166673956Y-97592841D01*
X166673956Y-97554489D01*
X166742431Y-97554489D01*
X166802900Y-97550347D01*
X166844165Y-97537147D01*
X166868175Y-97513730D01*
X166876877Y-97478936D01*
X166876983Y-97474394D01*
X166871892Y-97444654D01*
X166854433Y-97423419D01*
X166821939Y-97409366D01*
X166771743Y-97401173D01*
X166723123Y-97398161D01*
X166652456Y-97396433D01*
X166601198Y-97399070D01*
X166566239Y-97408800D01*
X166544470Y-97428353D01*
X166532780Y-97460456D01*
X166528060Y-97507838D01*
X166527200Y-97570071D01*
X166528609Y-97639535D01*
X166532848Y-97686786D01*
X166539936Y-97712012D01*
X166541311Y-97713988D01*
X166580228Y-97745508D01*
X166637286Y-97770470D01*
X166708869Y-97788340D01*
X166791358Y-97798586D01*
X166881139Y-97800673D01*
X166974592Y-97794068D01*
X167029556Y-97785956D01*
X167115766Y-97761554D01*
X167195892Y-97721662D01*
X167262977Y-97669887D01*
X167273173Y-97659539D01*
X167306302Y-97616035D01*
X167336194Y-97562118D01*
X167359357Y-97505592D01*
X167372298Y-97454259D01*
X167373858Y-97434544D01*
X167367218Y-97393419D01*
X167349568Y-97342252D01*
X167324297Y-97288394D01*
X167294789Y-97239195D01*
X167268719Y-97206334D01*
X167207765Y-97157452D01*
X167128969Y-97118545D01*
X167035157Y-97090494D01*
X166929150Y-97074179D01*
X166832000Y-97070192D01*
X166750081Y-97074599D01*
G36*
X158571177Y-97074533D02*
G01*
X158539798Y-97096776D01*
X158512089Y-97124485D01*
X158512089Y-97433920D01*
X158512162Y-97525799D01*
X158512505Y-97597840D01*
X158513308Y-97652780D01*
X158514759Y-97693360D01*
X158517048Y-97722317D01*
X158520364Y-97742391D01*
X158524895Y-97756321D01*
X158530831Y-97766845D01*
X158535486Y-97773100D01*
X158566217Y-97797673D01*
X158601504Y-97800341D01*
X158633755Y-97785271D01*
X158644412Y-97776374D01*
X158651536Y-97764557D01*
X158655833Y-97745526D01*
X158658009Y-97714992D01*
X158658772Y-97668662D01*
X158658845Y-97632871D01*
X158658845Y-97498045D01*
X159155556Y-97498045D01*
X159155556Y-97620700D01*
X159156069Y-97676787D01*
X159158124Y-97715333D01*
X159162492Y-97741361D01*
X159169944Y-97759897D01*
X159178953Y-97773100D01*
X159209856Y-97797604D01*
X159244804Y-97800506D01*
X159278262Y-97783089D01*
X159287396Y-97773959D01*
X159293848Y-97761855D01*
X159298103Y-97743001D01*
X159300648Y-97713620D01*
X159301971Y-97669937D01*
X159302557Y-97608175D01*
X159302625Y-97594000D01*
X159303109Y-97477631D01*
X159303359Y-97381727D01*
X159303277Y-97304177D01*
X159302769Y-97242869D01*
X159301738Y-97195690D01*
X159300087Y-97160530D01*
X159297721Y-97135276D01*
X159294543Y-97117817D01*
X159290456Y-97106041D01*
X159285366Y-97097835D01*
X159279734Y-97091645D01*
X159247872Y-97071844D01*
X159214643Y-97074533D01*
X159183265Y-97096776D01*
X159170567Y-97111126D01*
X159162474Y-97126978D01*
X159157958Y-97149554D01*
X159155994Y-97184078D01*
X159155556Y-97235776D01*
X159155556Y-97351289D01*
X158658845Y-97351289D01*
X158658845Y-97232756D01*
X158658338Y-97178148D01*
X158656302Y-97141275D01*
X158651965Y-97117307D01*
X158644553Y-97101415D01*
X158636267Y-97091645D01*
X158604406Y-97071844D01*
X158571177Y-97074533D01*
X158571177Y-97074533D01*
G37*
X158571177Y-97074533D02*
X158539798Y-97096776D01*
X158512089Y-97124485D01*
X158512089Y-97433920D01*
X158512162Y-97525799D01*
X158512505Y-97597840D01*
X158513308Y-97652780D01*
X158514759Y-97693360D01*
X158517048Y-97722317D01*
X158520364Y-97742391D01*
X158524895Y-97756321D01*
X158530831Y-97766845D01*
X158535486Y-97773100D01*
X158566217Y-97797673D01*
X158601504Y-97800341D01*
X158633755Y-97785271D01*
X158644412Y-97776374D01*
X158651536Y-97764557D01*
X158655833Y-97745526D01*
X158658009Y-97714992D01*
X158658772Y-97668662D01*
X158658845Y-97632871D01*
X158658845Y-97498045D01*
X159155556Y-97498045D01*
X159155556Y-97620700D01*
X159156069Y-97676787D01*
X159158124Y-97715333D01*
X159162492Y-97741361D01*
X159169944Y-97759897D01*
X159178953Y-97773100D01*
X159209856Y-97797604D01*
X159244804Y-97800506D01*
X159278262Y-97783089D01*
X159287396Y-97773959D01*
X159293848Y-97761855D01*
X159298103Y-97743001D01*
X159300648Y-97713620D01*
X159301971Y-97669937D01*
X159302557Y-97608175D01*
X159302625Y-97594000D01*
X159303109Y-97477631D01*
X159303359Y-97381727D01*
X159303277Y-97304177D01*
X159302769Y-97242869D01*
X159301738Y-97195690D01*
X159300087Y-97160530D01*
X159297721Y-97135276D01*
X159294543Y-97117817D01*
X159290456Y-97106041D01*
X159285366Y-97097835D01*
X159279734Y-97091645D01*
X159247872Y-97071844D01*
X159214643Y-97074533D01*
X159183265Y-97096776D01*
X159170567Y-97111126D01*
X159162474Y-97126978D01*
X159157958Y-97149554D01*
X159155994Y-97184078D01*
X159155556Y-97235776D01*
X159155556Y-97351289D01*
X158658845Y-97351289D01*
X158658845Y-97232756D01*
X158658338Y-97178148D01*
X158656302Y-97141275D01*
X158651965Y-97117307D01*
X158644553Y-97101415D01*
X158636267Y-97091645D01*
X158604406Y-97071844D01*
X158571177Y-97074533D01*
G36*
X159836935Y-97069163D02*
G01*
X159758228Y-97069542D01*
X159697137Y-97070333D01*
X159651183Y-97071670D01*
X159617886Y-97073683D01*
X159594764Y-97076506D01*
X159579338Y-97080269D01*
X159569129Y-97085105D01*
X159564187Y-97088822D01*
X159538543Y-97121358D01*
X159535441Y-97155138D01*
X159551289Y-97185826D01*
X159561652Y-97198089D01*
X159572804Y-97206450D01*
X159588965Y-97211657D01*
X159614358Y-97214457D01*
X159653202Y-97215596D01*
X159709720Y-97215821D01*
X159720820Y-97215822D01*
X159866756Y-97215822D01*
X159866756Y-97486756D01*
X159866852Y-97572154D01*
X159867289Y-97637864D01*
X159868288Y-97686774D01*
X159870072Y-97721773D01*
X159872863Y-97745749D01*
X159876883Y-97761593D01*
X159882355Y-97772191D01*
X159889334Y-97780267D01*
X159922266Y-97800112D01*
X159956646Y-97798548D01*
X159987824Y-97775906D01*
X159990114Y-97773100D01*
X159997571Y-97762492D01*
X160003253Y-97750081D01*
X160007399Y-97732850D01*
X160010250Y-97707784D01*
X160012046Y-97671867D01*
X160013028Y-97622083D01*
X160013436Y-97555417D01*
X160013511Y-97479589D01*
X160013511Y-97215822D01*
X160152873Y-97215822D01*
X160212678Y-97215418D01*
X160254082Y-97213840D01*
X160281252Y-97210547D01*
X160298354Y-97204992D01*
X160309557Y-97196631D01*
X160310917Y-97195178D01*
X160327275Y-97161939D01*
X160325828Y-97124362D01*
X160307022Y-97091645D01*
X160299750Y-97085298D01*
X160290373Y-97080266D01*
X160276391Y-97076396D01*
X160255304Y-97073537D01*
X160224611Y-97071535D01*
X160181811Y-97070239D01*
X160124405Y-97069498D01*
X160049890Y-97069158D01*
X159955767Y-97069068D01*
X159935740Y-97069067D01*
X159836935Y-97069163D01*
X159836935Y-97069163D01*
G37*
X159836935Y-97069163D02*
X159758228Y-97069542D01*
X159697137Y-97070333D01*
X159651183Y-97071670D01*
X159617886Y-97073683D01*
X159594764Y-97076506D01*
X159579338Y-97080269D01*
X159569129Y-97085105D01*
X159564187Y-97088822D01*
X159538543Y-97121358D01*
X159535441Y-97155138D01*
X159551289Y-97185826D01*
X159561652Y-97198089D01*
X159572804Y-97206450D01*
X159588965Y-97211657D01*
X159614358Y-97214457D01*
X159653202Y-97215596D01*
X159709720Y-97215821D01*
X159720820Y-97215822D01*
X159866756Y-97215822D01*
X159866756Y-97486756D01*
X159866852Y-97572154D01*
X159867289Y-97637864D01*
X159868288Y-97686774D01*
X159870072Y-97721773D01*
X159872863Y-97745749D01*
X159876883Y-97761593D01*
X159882355Y-97772191D01*
X159889334Y-97780267D01*
X159922266Y-97800112D01*
X159956646Y-97798548D01*
X159987824Y-97775906D01*
X159990114Y-97773100D01*
X159997571Y-97762492D01*
X160003253Y-97750081D01*
X160007399Y-97732850D01*
X160010250Y-97707784D01*
X160012046Y-97671867D01*
X160013028Y-97622083D01*
X160013436Y-97555417D01*
X160013511Y-97479589D01*
X160013511Y-97215822D01*
X160152873Y-97215822D01*
X160212678Y-97215418D01*
X160254082Y-97213840D01*
X160281252Y-97210547D01*
X160298354Y-97204992D01*
X160309557Y-97196631D01*
X160310917Y-97195178D01*
X160327275Y-97161939D01*
X160325828Y-97124362D01*
X160307022Y-97091645D01*
X160299750Y-97085298D01*
X160290373Y-97080266D01*
X160276391Y-97076396D01*
X160255304Y-97073537D01*
X160224611Y-97071535D01*
X160181811Y-97070239D01*
X160124405Y-97069498D01*
X160049890Y-97069158D01*
X159955767Y-97069068D01*
X159935740Y-97069067D01*
X159836935Y-97069163D01*
G36*
X166100114Y-97073448D02*
G01*
X166076548Y-97087273D01*
X166045735Y-97109881D01*
X166006078Y-97142338D01*
X165955980Y-97185708D01*
X165893843Y-97241058D01*
X165818072Y-97309451D01*
X165731334Y-97388084D01*
X165550711Y-97551878D01*
X165545067Y-97332029D01*
X165543029Y-97256351D01*
X165541063Y-97199994D01*
X165538734Y-97159706D01*
X165535606Y-97132235D01*
X165531245Y-97114329D01*
X165525216Y-97102737D01*
X165517084Y-97094208D01*
X165512772Y-97090623D01*
X165478241Y-97071670D01*
X165445383Y-97074441D01*
X165419318Y-97090633D01*
X165392667Y-97112199D01*
X165389352Y-97427151D01*
X165388435Y-97519779D01*
X165387968Y-97592544D01*
X165388113Y-97648161D01*
X165389032Y-97689342D01*
X165390887Y-97718803D01*
X165393839Y-97739255D01*
X165398050Y-97753413D01*
X165403682Y-97763991D01*
X165409927Y-97772474D01*
X165423439Y-97788207D01*
X165436883Y-97798636D01*
X165452124Y-97802639D01*
X165471026Y-97799094D01*
X165495455Y-97786879D01*
X165527273Y-97764871D01*
X165568348Y-97731949D01*
X165620542Y-97686991D01*
X165685722Y-97628875D01*
X165759556Y-97562099D01*
X166024845Y-97321458D01*
X166030489Y-97540589D01*
X166032531Y-97616128D01*
X166034502Y-97672354D01*
X166036839Y-97712524D01*
X166039981Y-97739896D01*
X166044364Y-97757728D01*
X166050424Y-97769279D01*
X166058600Y-97777807D01*
X166062784Y-97781282D01*
X166099765Y-97800372D01*
X166134708Y-97797493D01*
X166165136Y-97773100D01*
X166172097Y-97763286D01*
X166177523Y-97751826D01*
X166181603Y-97735968D01*
X166184529Y-97712963D01*
X166186492Y-97680062D01*
X166187683Y-97634516D01*
X166188292Y-97573573D01*
X166188511Y-97494486D01*
X166188534Y-97435956D01*
X166188460Y-97344407D01*
X166188113Y-97272687D01*
X166187301Y-97218045D01*
X166185833Y-97177732D01*
X166183519Y-97148998D01*
X166180167Y-97129093D01*
X166175588Y-97115268D01*
X166169589Y-97104772D01*
X166165136Y-97098811D01*
X166153850Y-97084691D01*
X166143301Y-97074029D01*
X166131893Y-97067892D01*
X166118030Y-97067343D01*
X166100114Y-97073448D01*
X166100114Y-97073448D01*
G37*
X166100114Y-97073448D02*
X166076548Y-97087273D01*
X166045735Y-97109881D01*
X166006078Y-97142338D01*
X165955980Y-97185708D01*
X165893843Y-97241058D01*
X165818072Y-97309451D01*
X165731334Y-97388084D01*
X165550711Y-97551878D01*
X165545067Y-97332029D01*
X165543029Y-97256351D01*
X165541063Y-97199994D01*
X165538734Y-97159706D01*
X165535606Y-97132235D01*
X165531245Y-97114329D01*
X165525216Y-97102737D01*
X165517084Y-97094208D01*
X165512772Y-97090623D01*
X165478241Y-97071670D01*
X165445383Y-97074441D01*
X165419318Y-97090633D01*
X165392667Y-97112199D01*
X165389352Y-97427151D01*
X165388435Y-97519779D01*
X165387968Y-97592544D01*
X165388113Y-97648161D01*
X165389032Y-97689342D01*
X165390887Y-97718803D01*
X165393839Y-97739255D01*
X165398050Y-97753413D01*
X165403682Y-97763991D01*
X165409927Y-97772474D01*
X165423439Y-97788207D01*
X165436883Y-97798636D01*
X165452124Y-97802639D01*
X165471026Y-97799094D01*
X165495455Y-97786879D01*
X165527273Y-97764871D01*
X165568348Y-97731949D01*
X165620542Y-97686991D01*
X165685722Y-97628875D01*
X165759556Y-97562099D01*
X166024845Y-97321458D01*
X166030489Y-97540589D01*
X166032531Y-97616128D01*
X166034502Y-97672354D01*
X166036839Y-97712524D01*
X166039981Y-97739896D01*
X166044364Y-97757728D01*
X166050424Y-97769279D01*
X166058600Y-97777807D01*
X166062784Y-97781282D01*
X166099765Y-97800372D01*
X166134708Y-97797493D01*
X166165136Y-97773100D01*
X166172097Y-97763286D01*
X166177523Y-97751826D01*
X166181603Y-97735968D01*
X166184529Y-97712963D01*
X166186492Y-97680062D01*
X166187683Y-97634516D01*
X166188292Y-97573573D01*
X166188511Y-97494486D01*
X166188534Y-97435956D01*
X166188460Y-97344407D01*
X166188113Y-97272687D01*
X166187301Y-97218045D01*
X166185833Y-97177732D01*
X166183519Y-97148998D01*
X166180167Y-97129093D01*
X166175588Y-97115268D01*
X166169589Y-97104772D01*
X166165136Y-97098811D01*
X166153850Y-97084691D01*
X166143301Y-97074029D01*
X166131893Y-97067892D01*
X166118030Y-97067343D01*
X166100114Y-97073448D01*
G36*
X160611386Y-97075877D02*
G01*
X160587673Y-97090647D01*
X160561022Y-97112227D01*
X160561022Y-97433773D01*
X160561107Y-97527830D01*
X160561471Y-97601932D01*
X160562276Y-97658704D01*
X160563687Y-97700768D01*
X160565867Y-97730748D01*
X160568979Y-97751267D01*
X160573186Y-97764949D01*
X160578652Y-97774416D01*
X160582528Y-97779082D01*
X160613966Y-97799575D01*
X160649767Y-97798739D01*
X160681127Y-97781264D01*
X160707778Y-97759684D01*
X160707778Y-97112227D01*
X160681127Y-97090647D01*
X160655406Y-97074949D01*
X160634400Y-97069067D01*
X160611386Y-97075877D01*
X160611386Y-97075877D01*
G37*
X160611386Y-97075877D02*
X160587673Y-97090647D01*
X160561022Y-97112227D01*
X160561022Y-97433773D01*
X160561107Y-97527830D01*
X160561471Y-97601932D01*
X160562276Y-97658704D01*
X160563687Y-97700768D01*
X160565867Y-97730748D01*
X160568979Y-97751267D01*
X160573186Y-97764949D01*
X160578652Y-97774416D01*
X160582528Y-97779082D01*
X160613966Y-97799575D01*
X160649767Y-97798739D01*
X160681127Y-97781264D01*
X160707778Y-97759684D01*
X160707778Y-97112227D01*
X160681127Y-97090647D01*
X160655406Y-97074949D01*
X160634400Y-97069067D01*
X160611386Y-97075877D01*
G36*
X161055335Y-97071034D02*
G01*
X161035745Y-97078035D01*
X161034990Y-97078377D01*
X161008387Y-97098678D01*
X160993730Y-97119561D01*
X160990862Y-97129352D01*
X160991004Y-97142361D01*
X160995039Y-97160895D01*
X161003854Y-97187257D01*
X161018331Y-97223752D01*
X161039355Y-97272687D01*
X161067812Y-97336365D01*
X161104585Y-97417093D01*
X161124825Y-97461216D01*
X161161375Y-97539985D01*
X161195685Y-97612423D01*
X161226448Y-97675880D01*
X161252352Y-97727708D01*
X161272090Y-97765259D01*
X161284350Y-97785884D01*
X161286776Y-97788733D01*
X161317817Y-97801302D01*
X161352879Y-97799619D01*
X161381000Y-97784332D01*
X161382146Y-97783089D01*
X161393332Y-97766154D01*
X161412096Y-97733170D01*
X161436125Y-97688380D01*
X161463103Y-97636032D01*
X161472799Y-97616742D01*
X161545986Y-97470150D01*
X161625760Y-97629393D01*
X161654233Y-97684415D01*
X161680650Y-97732132D01*
X161702852Y-97768893D01*
X161718681Y-97791044D01*
X161724046Y-97795741D01*
X161765743Y-97802102D01*
X161800151Y-97788733D01*
X161810272Y-97774446D01*
X161827786Y-97742692D01*
X161851265Y-97696597D01*
X161879280Y-97639285D01*
X161910401Y-97573880D01*
X161943201Y-97503507D01*
X161976250Y-97431291D01*
X162008119Y-97360355D01*
X162037381Y-97293825D01*
X162062605Y-97234826D01*
X162082364Y-97186481D01*
X162095228Y-97151915D01*
X162099769Y-97134253D01*
X162099723Y-97133613D01*
X162088674Y-97111388D01*
X162066590Y-97088753D01*
X162065290Y-97087768D01*
X162038147Y-97072425D01*
X162013042Y-97072574D01*
X162003632Y-97075466D01*
X161992166Y-97081718D01*
X161979990Y-97094014D01*
X161965643Y-97114908D01*
X161947664Y-97146949D01*
X161924593Y-97192688D01*
X161894970Y-97254677D01*
X161868255Y-97311898D01*
X161837520Y-97378226D01*
X161809979Y-97437874D01*
X161787062Y-97487725D01*
X161770202Y-97524664D01*
X161760827Y-97545573D01*
X161759460Y-97548845D01*
X161753311Y-97543497D01*
X161739178Y-97521109D01*
X161718943Y-97484946D01*
X161694485Y-97438277D01*
X161684752Y-97419022D01*
X161651783Y-97354004D01*
X161626357Y-97306654D01*
X161606388Y-97274219D01*
X161589790Y-97253946D01*
X161574476Y-97243082D01*
X161558360Y-97238875D01*
X161547857Y-97238400D01*
X161529330Y-97240042D01*
X161513096Y-97246831D01*
X161496965Y-97261566D01*
X161478749Y-97287044D01*
X161456261Y-97326061D01*
X161427311Y-97381414D01*
X161411338Y-97412903D01*
X161385430Y-97463087D01*
X161362833Y-97504704D01*
X161345542Y-97534242D01*
X161335550Y-97548189D01*
X161334191Y-97548770D01*
X161327739Y-97537793D01*
X161313292Y-97509290D01*
X161292297Y-97466244D01*
X161266203Y-97411638D01*
X161236454Y-97348454D01*
X161221820Y-97317071D01*
X161183750Y-97236078D01*
X161153095Y-97173756D01*
X161128263Y-97128071D01*
X161107663Y-97096989D01*
X161089702Y-97078478D01*
X161072790Y-97070504D01*
X161055335Y-97071034D01*
X161055335Y-97071034D01*
G37*
X161055335Y-97071034D02*
X161035745Y-97078035D01*
X161034990Y-97078377D01*
X161008387Y-97098678D01*
X160993730Y-97119561D01*
X160990862Y-97129352D01*
X160991004Y-97142361D01*
X160995039Y-97160895D01*
X161003854Y-97187257D01*
X161018331Y-97223752D01*
X161039355Y-97272687D01*
X161067812Y-97336365D01*
X161104585Y-97417093D01*
X161124825Y-97461216D01*
X161161375Y-97539985D01*
X161195685Y-97612423D01*
X161226448Y-97675880D01*
X161252352Y-97727708D01*
X161272090Y-97765259D01*
X161284350Y-97785884D01*
X161286776Y-97788733D01*
X161317817Y-97801302D01*
X161352879Y-97799619D01*
X161381000Y-97784332D01*
X161382146Y-97783089D01*
X161393332Y-97766154D01*
X161412096Y-97733170D01*
X161436125Y-97688380D01*
X161463103Y-97636032D01*
X161472799Y-97616742D01*
X161545986Y-97470150D01*
X161625760Y-97629393D01*
X161654233Y-97684415D01*
X161680650Y-97732132D01*
X161702852Y-97768893D01*
X161718681Y-97791044D01*
X161724046Y-97795741D01*
X161765743Y-97802102D01*
X161800151Y-97788733D01*
X161810272Y-97774446D01*
X161827786Y-97742692D01*
X161851265Y-97696597D01*
X161879280Y-97639285D01*
X161910401Y-97573880D01*
X161943201Y-97503507D01*
X161976250Y-97431291D01*
X162008119Y-97360355D01*
X162037381Y-97293825D01*
X162062605Y-97234826D01*
X162082364Y-97186481D01*
X162095228Y-97151915D01*
X162099769Y-97134253D01*
X162099723Y-97133613D01*
X162088674Y-97111388D01*
X162066590Y-97088753D01*
X162065290Y-97087768D01*
X162038147Y-97072425D01*
X162013042Y-97072574D01*
X162003632Y-97075466D01*
X161992166Y-97081718D01*
X161979990Y-97094014D01*
X161965643Y-97114908D01*
X161947664Y-97146949D01*
X161924593Y-97192688D01*
X161894970Y-97254677D01*
X161868255Y-97311898D01*
X161837520Y-97378226D01*
X161809979Y-97437874D01*
X161787062Y-97487725D01*
X161770202Y-97524664D01*
X161760827Y-97545573D01*
X161759460Y-97548845D01*
X161753311Y-97543497D01*
X161739178Y-97521109D01*
X161718943Y-97484946D01*
X161694485Y-97438277D01*
X161684752Y-97419022D01*
X161651783Y-97354004D01*
X161626357Y-97306654D01*
X161606388Y-97274219D01*
X161589790Y-97253946D01*
X161574476Y-97243082D01*
X161558360Y-97238875D01*
X161547857Y-97238400D01*
X161529330Y-97240042D01*
X161513096Y-97246831D01*
X161496965Y-97261566D01*
X161478749Y-97287044D01*
X161456261Y-97326061D01*
X161427311Y-97381414D01*
X161411338Y-97412903D01*
X161385430Y-97463087D01*
X161362833Y-97504704D01*
X161345542Y-97534242D01*
X161335550Y-97548189D01*
X161334191Y-97548770D01*
X161327739Y-97537793D01*
X161313292Y-97509290D01*
X161292297Y-97466244D01*
X161266203Y-97411638D01*
X161236454Y-97348454D01*
X161221820Y-97317071D01*
X161183750Y-97236078D01*
X161153095Y-97173756D01*
X161128263Y-97128071D01*
X161107663Y-97096989D01*
X161089702Y-97078478D01*
X161072790Y-97070504D01*
X161055335Y-97071034D01*
G36*
X163781691Y-97069275D02*
G01*
X163652712Y-97073636D01*
X163543009Y-97086861D01*
X163450774Y-97109741D01*
X163374198Y-97143070D01*
X163311473Y-97187638D01*
X163260788Y-97244236D01*
X163220337Y-97313658D01*
X163219541Y-97315351D01*
X163195399Y-97377483D01*
X163186797Y-97432509D01*
X163193769Y-97487887D01*
X163216346Y-97551073D01*
X163220628Y-97560689D01*
X163249828Y-97616966D01*
X163282644Y-97660451D01*
X163324998Y-97697417D01*
X163382810Y-97734135D01*
X163386169Y-97736052D01*
X163436496Y-97760227D01*
X163493379Y-97778282D01*
X163560473Y-97790839D01*
X163641435Y-97798522D01*
X163739918Y-97801953D01*
X163774714Y-97802251D01*
X163940406Y-97802845D01*
X163963803Y-97773100D01*
X163970743Y-97763319D01*
X163976158Y-97751897D01*
X163980235Y-97736095D01*
X163983163Y-97713175D01*
X163985133Y-97680396D01*
X163985775Y-97656089D01*
X163829156Y-97656089D01*
X163735274Y-97656089D01*
X163680336Y-97654483D01*
X163623940Y-97650255D01*
X163577655Y-97644292D01*
X163574861Y-97643790D01*
X163492652Y-97621736D01*
X163428886Y-97588600D01*
X163381548Y-97542847D01*
X163348618Y-97482939D01*
X163342892Y-97467061D01*
X163337279Y-97442333D01*
X163339709Y-97417902D01*
X163351533Y-97385400D01*
X163358660Y-97369434D01*
X163382000Y-97327006D01*
X163410120Y-97297240D01*
X163441060Y-97276511D01*
X163503034Y-97249537D01*
X163582349Y-97229998D01*
X163674747Y-97218746D01*
X163741667Y-97216270D01*
X163829156Y-97215822D01*
X163829156Y-97656089D01*
X163985775Y-97656089D01*
X163986332Y-97635021D01*
X163986950Y-97574311D01*
X163987175Y-97495526D01*
X163987200Y-97433920D01*
X163987200Y-97124485D01*
X163959491Y-97096776D01*
X163947194Y-97085544D01*
X163933897Y-97077853D01*
X163915328Y-97073040D01*
X163887214Y-97070446D01*
X163845283Y-97069410D01*
X163785263Y-97069270D01*
X163781691Y-97069275D01*
X163781691Y-97069275D01*
G37*
X163781691Y-97069275D02*
X163652712Y-97073636D01*
X163543009Y-97086861D01*
X163450774Y-97109741D01*
X163374198Y-97143070D01*
X163311473Y-97187638D01*
X163260788Y-97244236D01*
X163220337Y-97313658D01*
X163219541Y-97315351D01*
X163195399Y-97377483D01*
X163186797Y-97432509D01*
X163193769Y-97487887D01*
X163216346Y-97551073D01*
X163220628Y-97560689D01*
X163249828Y-97616966D01*
X163282644Y-97660451D01*
X163324998Y-97697417D01*
X163382810Y-97734135D01*
X163386169Y-97736052D01*
X163436496Y-97760227D01*
X163493379Y-97778282D01*
X163560473Y-97790839D01*
X163641435Y-97798522D01*
X163739918Y-97801953D01*
X163774714Y-97802251D01*
X163940406Y-97802845D01*
X163963803Y-97773100D01*
X163970743Y-97763319D01*
X163976158Y-97751897D01*
X163980235Y-97736095D01*
X163983163Y-97713175D01*
X163985133Y-97680396D01*
X163985775Y-97656089D01*
X163829156Y-97656089D01*
X163735274Y-97656089D01*
X163680336Y-97654483D01*
X163623940Y-97650255D01*
X163577655Y-97644292D01*
X163574861Y-97643790D01*
X163492652Y-97621736D01*
X163428886Y-97588600D01*
X163381548Y-97542847D01*
X163348618Y-97482939D01*
X163342892Y-97467061D01*
X163337279Y-97442333D01*
X163339709Y-97417902D01*
X163351533Y-97385400D01*
X163358660Y-97369434D01*
X163382000Y-97327006D01*
X163410120Y-97297240D01*
X163441060Y-97276511D01*
X163503034Y-97249537D01*
X163582349Y-97229998D01*
X163674747Y-97218746D01*
X163741667Y-97216270D01*
X163829156Y-97215822D01*
X163829156Y-97656089D01*
X163985775Y-97656089D01*
X163986332Y-97635021D01*
X163986950Y-97574311D01*
X163987175Y-97495526D01*
X163987200Y-97433920D01*
X163987200Y-97124485D01*
X163959491Y-97096776D01*
X163947194Y-97085544D01*
X163933897Y-97077853D01*
X163915328Y-97073040D01*
X163887214Y-97070446D01*
X163845283Y-97069410D01*
X163785263Y-97069270D01*
X163781691Y-97069275D01*
G36*
X164569657Y-97069260D02*
G01*
X164493299Y-97070174D01*
X164434783Y-97072311D01*
X164391745Y-97076175D01*
X164361817Y-97082267D01*
X164342632Y-97091090D01*
X164331824Y-97103146D01*
X164327027Y-97118939D01*
X164325873Y-97138970D01*
X164325867Y-97141335D01*
X164326869Y-97163992D01*
X164331604Y-97181503D01*
X164342667Y-97194574D01*
X164362652Y-97203913D01*
X164394154Y-97210227D01*
X164439768Y-97214222D01*
X164502087Y-97216606D01*
X164583707Y-97218086D01*
X164608723Y-97218414D01*
X164850800Y-97221467D01*
X164854186Y-97286378D01*
X164857571Y-97351289D01*
X164689424Y-97351289D01*
X164623734Y-97351531D01*
X164576828Y-97352556D01*
X164544917Y-97354811D01*
X164524209Y-97358742D01*
X164510916Y-97364798D01*
X164501245Y-97373424D01*
X164501183Y-97373493D01*
X164483644Y-97407112D01*
X164484278Y-97443448D01*
X164502686Y-97474423D01*
X164506329Y-97477607D01*
X164519259Y-97485812D01*
X164536976Y-97491521D01*
X164563430Y-97495162D01*
X164602568Y-97497167D01*
X164658338Y-97497964D01*
X164694006Y-97498045D01*
X164856445Y-97498045D01*
X164856445Y-97656089D01*
X164609839Y-97656089D01*
X164528420Y-97656231D01*
X164466590Y-97656814D01*
X164421363Y-97658068D01*
X164389752Y-97660227D01*
X164368769Y-97663523D01*
X164355427Y-97668189D01*
X164346739Y-97674457D01*
X164344550Y-97676733D01*
X164328386Y-97708280D01*
X164327203Y-97744168D01*
X164340464Y-97775285D01*
X164350957Y-97785271D01*
X164361871Y-97790769D01*
X164378783Y-97795022D01*
X164404367Y-97798180D01*
X164441299Y-97800392D01*
X164492254Y-97801806D01*
X164559906Y-97802572D01*
X164646931Y-97802838D01*
X164666606Y-97802845D01*
X164755089Y-97802787D01*
X164823773Y-97802467D01*
X164875436Y-97801667D01*
X164912855Y-97800167D01*
X164938810Y-97797749D01*
X164956078Y-97794194D01*
X164967438Y-97789282D01*
X164975668Y-97782795D01*
X164980183Y-97778138D01*
X164986979Y-97769889D01*
X164992288Y-97759669D01*
X164996294Y-97744800D01*
X164999179Y-97722602D01*
X165001126Y-97690393D01*
X165002319Y-97645496D01*
X165002939Y-97585228D01*
X165003171Y-97506911D01*
X165003200Y-97440994D01*
X165003129Y-97348628D01*
X165002792Y-97276117D01*
X165002002Y-97220737D01*
X165000574Y-97179765D01*
X164998321Y-97150478D01*
X164995057Y-97130153D01*
X164990596Y-97116066D01*
X164984752Y-97105495D01*
X164979803Y-97098811D01*
X164956406Y-97069067D01*
X164666226Y-97069067D01*
X164569657Y-97069260D01*
X164569657Y-97069260D01*
G37*
X164569657Y-97069260D02*
X164493299Y-97070174D01*
X164434783Y-97072311D01*
X164391745Y-97076175D01*
X164361817Y-97082267D01*
X164342632Y-97091090D01*
X164331824Y-97103146D01*
X164327027Y-97118939D01*
X164325873Y-97138970D01*
X164325867Y-97141335D01*
X164326869Y-97163992D01*
X164331604Y-97181503D01*
X164342667Y-97194574D01*
X164362652Y-97203913D01*
X164394154Y-97210227D01*
X164439768Y-97214222D01*
X164502087Y-97216606D01*
X164583707Y-97218086D01*
X164608723Y-97218414D01*
X164850800Y-97221467D01*
X164854186Y-97286378D01*
X164857571Y-97351289D01*
X164689424Y-97351289D01*
X164623734Y-97351531D01*
X164576828Y-97352556D01*
X164544917Y-97354811D01*
X164524209Y-97358742D01*
X164510916Y-97364798D01*
X164501245Y-97373424D01*
X164501183Y-97373493D01*
X164483644Y-97407112D01*
X164484278Y-97443448D01*
X164502686Y-97474423D01*
X164506329Y-97477607D01*
X164519259Y-97485812D01*
X164536976Y-97491521D01*
X164563430Y-97495162D01*
X164602568Y-97497167D01*
X164658338Y-97497964D01*
X164694006Y-97498045D01*
X164856445Y-97498045D01*
X164856445Y-97656089D01*
X164609839Y-97656089D01*
X164528420Y-97656231D01*
X164466590Y-97656814D01*
X164421363Y-97658068D01*
X164389752Y-97660227D01*
X164368769Y-97663523D01*
X164355427Y-97668189D01*
X164346739Y-97674457D01*
X164344550Y-97676733D01*
X164328386Y-97708280D01*
X164327203Y-97744168D01*
X164340464Y-97775285D01*
X164350957Y-97785271D01*
X164361871Y-97790769D01*
X164378783Y-97795022D01*
X164404367Y-97798180D01*
X164441299Y-97800392D01*
X164492254Y-97801806D01*
X164559906Y-97802572D01*
X164646931Y-97802838D01*
X164666606Y-97802845D01*
X164755089Y-97802787D01*
X164823773Y-97802467D01*
X164875436Y-97801667D01*
X164912855Y-97800167D01*
X164938810Y-97797749D01*
X164956078Y-97794194D01*
X164967438Y-97789282D01*
X164975668Y-97782795D01*
X164980183Y-97778138D01*
X164986979Y-97769889D01*
X164992288Y-97759669D01*
X164996294Y-97744800D01*
X164999179Y-97722602D01*
X165001126Y-97690393D01*
X165002319Y-97645496D01*
X165002939Y-97585228D01*
X165003171Y-97506911D01*
X165003200Y-97440994D01*
X165003129Y-97348628D01*
X165002792Y-97276117D01*
X165002002Y-97220737D01*
X165000574Y-97179765D01*
X164998321Y-97150478D01*
X164995057Y-97130153D01*
X164990596Y-97116066D01*
X164984752Y-97105495D01*
X164979803Y-97098811D01*
X164956406Y-97069067D01*
X164666226Y-97069067D01*
X164569657Y-97069260D01*
D11*
X172000000Y-104000000D03*
D12*
X177000000Y-104000000D03*
D11*
X152000000Y-104000000D03*
D12*
X157000000Y-104000000D03*
D13*
X141000000Y-108000000D03*
X233000000Y-66000000D03*
X233000000Y-108000000D03*
X141000000Y-66000000D03*
D14*
X194600000Y-100120000D03*
X194600000Y-102660000D03*
X194600000Y-105200000D03*
D15*
X231800000Y-102300000D03*
D16*
X234340000Y-102300000D03*
D17*
G36*
X212959279Y-101446205D02*
G01*
X212983571Y-101449808D01*
X213007394Y-101455776D01*
X213030517Y-101464049D01*
X213052717Y-101474549D01*
X213073781Y-101487175D01*
X213093507Y-101501804D01*
X213111703Y-101518297D01*
X213128196Y-101536493D01*
X213142825Y-101556219D01*
X213155451Y-101577283D01*
X213165951Y-101599483D01*
X213174224Y-101622606D01*
X213180192Y-101646429D01*
X213183795Y-101670721D01*
X213185000Y-101695250D01*
X213185000Y-104624750D01*
X213183795Y-104649279D01*
X213180192Y-104673571D01*
X213174224Y-104697394D01*
X213165951Y-104720517D01*
X213155451Y-104742717D01*
X213142825Y-104763781D01*
X213128196Y-104783507D01*
X213111703Y-104801703D01*
X213093507Y-104818196D01*
X213073781Y-104832825D01*
X213052717Y-104845451D01*
X213030517Y-104855951D01*
X213007394Y-104864224D01*
X212983571Y-104870192D01*
X212959279Y-104873795D01*
X212934750Y-104875000D01*
X210685250Y-104875000D01*
X210660721Y-104873795D01*
X210636429Y-104870192D01*
X210612606Y-104864224D01*
X210589483Y-104855951D01*
X210567283Y-104845451D01*
X210546219Y-104832825D01*
X210526493Y-104818196D01*
X210508297Y-104801703D01*
X210491804Y-104783507D01*
X210477175Y-104763781D01*
X210464549Y-104742717D01*
X210454049Y-104720517D01*
X210445776Y-104697394D01*
X210439808Y-104673571D01*
X210436205Y-104649279D01*
X210435000Y-104624750D01*
X210435000Y-101695250D01*
X210436205Y-101670721D01*
X210439808Y-101646429D01*
X210445776Y-101622606D01*
X210454049Y-101599483D01*
X210464549Y-101577283D01*
X210477175Y-101556219D01*
X210491804Y-101536493D01*
X210508297Y-101518297D01*
X210526493Y-101501804D01*
X210546219Y-101487175D01*
X210567283Y-101474549D01*
X210589483Y-101464049D01*
X210612606Y-101455776D01*
X210636429Y-101449808D01*
X210660721Y-101446205D01*
X210685250Y-101445000D01*
X212934750Y-101445000D01*
X212959279Y-101446205D01*
X212959279Y-101446205D01*
G37*
D18*
X211810000Y-103160000D03*
M02*
